# Blender 4.2.0
# www.blender.org
mtllib HPBar.mtl
o Cube.001
v -0.032654 0.299966 1.000000
v -0.032654 -0.299966 1.000000
v -0.032654 0.299966 -1.000000
v 0.032654 0.299966 1.000000
v 0.032654 -0.299966 1.000000
v 0.032654 0.299966 -1.000000
v 0.032654 -0.299966 -1.000000
v -0.032654 -0.299966 -1.000000
v -0.116998 0.363183 -0.998700
v 0.033002 0.363183 -0.998700
v -0.116998 -0.366817 -0.998700
v 0.033002 -0.366817 -0.998700
v -0.116998 0.363183 -1.064008
v 0.033002 0.363183 -1.064008
v -0.116998 -0.366817 -1.064008
v 0.033002 -0.366817 -1.064008
v -0.057654 0.299966 -0.188027
v -0.057654 -0.299966 -0.188027
v -0.057654 0.299966 -0.211973
v 0.007654 0.299966 -0.188027
v 0.007654 -0.299966 -0.188027
v 0.007654 0.299966 -0.211973
v 0.007654 -0.299966 -0.211973
v -0.057654 -0.299966 -0.211973
v -0.057654 0.299966 0.611973
v -0.057654 -0.299966 0.611973
v -0.057654 0.299966 0.588027
v 0.007654 0.299966 0.611973
v 0.007654 -0.299966 0.611973
v 0.007654 0.299966 0.588027
v 0.007654 -0.299966 0.588027
v -0.057654 -0.299966 0.588027
v -0.057654 0.299966 -0.588027
v -0.057654 -0.299966 -0.588027
v -0.057654 0.299966 -0.611973
v 0.007654 0.299966 -0.588027
v 0.007654 -0.299966 -0.588027
v 0.007654 0.299966 -0.611973
v 0.007654 -0.299966 -0.611973
v -0.057654 -0.299966 -0.611973
v -0.057654 0.299966 0.211973
v -0.057654 -0.299966 0.211973
v -0.057654 0.299966 0.188027
v 0.007654 0.299966 0.211973
v 0.007654 -0.299966 0.211973
v 0.007654 0.299966 0.188027
v 0.007654 -0.299966 0.188027
v -0.057654 -0.299966 0.188027
v -0.116998 0.298358 1.000000
v 0.033002 0.298358 1.000000
v -0.116998 0.298358 -1.000000
v -0.116998 0.363666 1.000000
v 0.033002 0.363666 1.000000
v -0.116998 0.363666 -1.000000
v 0.033002 0.363666 -1.000000
v 0.033002 0.298358 -1.000000
v -0.116998 -0.364689 1.000000
v 0.033002 -0.364689 1.000000
v -0.116998 -0.364689 -1.000000
v -0.116998 -0.299381 1.000000
v 0.033002 -0.299381 1.000000
v -0.116998 -0.299381 -1.000000
v 0.033002 -0.299381 -1.000000
v 0.033002 -0.364689 -1.000000
v -0.116998 0.363183 1.065121
v 0.033002 0.363183 1.065121
v -0.116998 -0.366817 1.065121
v -0.116998 0.363183 0.999813
v 0.033002 0.363183 0.999813
v -0.116998 -0.366817 0.999813
v 0.033002 -0.366817 0.999813
v 0.033002 -0.366817 1.065121
vn -0.0000 -0.0000 1.0000
vn -1.0000 -0.0000 -0.0000
vn -0.0000 1.0000 -0.0000
vn 1.0000 -0.0000 -0.0000
vn -0.0000 -0.0000 -1.0000
vn -0.0000 -1.0000 -0.0000
vt 0.148733 0.148929
vt 0.296877 0.297073
vt 0.148733 0.297073
vt 0.148733 0.445217
vt 0.445020 0.297073
vt 0.296877 0.445217
vt 0.296877 0.000786
vt 0.148733 0.000786
vt 0.148733 0.593360
vt 0.000589 0.445217
vt 0.000589 0.297073
vt 0.125189 0.084022
vt 0.084026 0.125184
vt 0.084026 0.084022
vt 0.042864 0.166347
vt 0.042864 0.125184
vt 0.084026 0.001698
vt 0.042864 0.042860
vt 0.042864 0.001698
vt 0.042864 0.084022
vt 0.001702 0.125184
vt 0.001702 0.084022
vt 0.084026 0.042860
vt 0.366856 0.213304
vt 0.388361 0.234808
vt 0.366856 0.234808
vt 0.366856 0.256312
vt 0.409865 0.234808
vt 0.388361 0.256312
vt 0.388361 0.191800
vt 0.366856 0.191800
vt 0.366856 0.277816
vt 0.345352 0.256312
vt 0.345352 0.234808
vt 0.087325 0.149852
vt 0.108829 0.171356
vt 0.087325 0.171356
vt 0.087325 0.192860
vt 0.130334 0.171356
vt 0.108829 0.192860
vt 0.108829 0.128348
vt 0.087325 0.128348
vt 0.087325 0.214364
vt 0.065821 0.192860
vt 0.065821 0.171356
vt 0.320554 0.189295
vt 0.342058 0.210799
vt 0.320554 0.210799
vt 0.320554 0.232303
vt 0.363562 0.210799
vt 0.342058 0.232303
vt 0.342058 0.167791
vt 0.320554 0.167791
vt 0.320554 0.253807
vt 0.299050 0.232303
vt 0.299050 0.210799
vt 0.022159 0.189295
vt 0.043663 0.210799
vt 0.022159 0.210799
vt 0.022159 0.232303
vt 0.065167 0.210799
vt 0.043663 0.232303
vt 0.043663 0.167791
vt 0.022159 0.167791
vt 0.022159 0.253807
vt 0.000654 0.232303
vt 0.000654 0.210799
vt 0.584525 0.309617
vt 0.447071 0.447071
vt 0.447071 0.309617
vt 0.584525 0.447071
vt 0.447071 0.584525
vt 0.721979 0.447071
vt 0.584525 0.584525
vt 0.584525 0.172162
vt 0.447071 0.172162
vt 0.447071 0.721979
vt 0.309617 0.584525
vt 0.309617 0.447071
vt 0.862341 0.138125
vt 0.724887 0.275579
vt 0.724887 0.138125
vt 0.862341 0.275579
vt 0.724887 0.413033
vt 0.999795 0.275579
vt 0.862341 0.413034
vt 0.862341 0.000671
vt 0.724887 0.000671
vt 0.724887 0.550488
vt 0.587433 0.413033
vt 0.587433 0.275579
vt 0.382422 0.042860
vt 0.341259 0.084022
vt 0.341259 0.042860
vt 0.382422 0.084022
vt 0.341259 0.125184
vt 0.423584 0.084022
vt 0.382422 0.125184
vt 0.382422 0.001698
vt 0.341259 0.001698
vt 0.341259 0.166347
vt 0.300097 0.125184
vt 0.300097 0.084022
vt 0.296877 0.148929
vt 0.445020 0.445217
vt 0.296877 0.593360
vt 0.125189 0.125184
vt 0.084026 0.166347
vt 0.388361 0.213304
vt 0.409865 0.256312
vt 0.388361 0.277816
vt 0.108829 0.149852
vt 0.130334 0.192860
vt 0.108829 0.214364
vt 0.342058 0.189295
vt 0.363562 0.232303
vt 0.342058 0.253807
vt 0.043663 0.189295
vt 0.065167 0.232303
vt 0.043663 0.253807
vt 0.721979 0.584525
vt 0.584525 0.721979
vt 0.999795 0.413033
vt 0.862341 0.550488
vt 0.423584 0.125184
vt 0.382422 0.166347
s 0
usemtl マテリアル.005
f 5/1/1 1/2/1 2/3/1
f 1/2/2 8/4/2 2/3/2
f 4/5/3 3/6/3 1/2/3
f 6/7/4 5/1/4 7/8/4
f 3/6/5 7/9/5 8/4/5
f 2/3/6 7/10/6 5/11/6
f 13/12/2 11/13/2 9/14/2
f 11/13/6 16/15/6 12/16/6
f 15/17/5 14/18/5 16/19/5
f 10/20/4 16/21/4 14/22/4
f 9/14/1 12/16/1 10/20/1
f 13/23/3 10/20/3 14/18/3
f 21/24/1 17/25/1 18/26/1
f 17/25/2 24/27/2 18/26/2
f 20/28/3 19/29/3 17/25/3
f 22/30/4 21/24/4 23/31/4
f 19/29/5 23/32/5 24/27/5
f 18/26/6 23/33/6 21/34/6
f 29/35/1 25/36/1 26/37/1
f 25/36/2 32/38/2 26/37/2
f 28/39/3 27/40/3 25/36/3
f 30/41/4 29/35/4 31/42/4
f 27/40/5 31/43/5 32/38/5
f 26/37/6 31/44/6 29/45/6
f 37/46/1 33/47/1 34/48/1
f 33/47/2 40/49/2 34/48/2
f 36/50/3 35/51/3 33/47/3
f 38/52/4 37/46/4 39/53/4
f 35/51/5 39/54/5 40/49/5
f 34/48/6 39/55/6 37/56/6
f 45/57/1 41/58/1 42/59/1
f 41/58/2 48/60/2 42/59/2
f 44/61/3 43/62/3 41/58/3
f 46/63/4 45/57/4 47/64/4
f 43/62/5 47/65/5 48/60/5
f 42/59/6 47/66/6 45/67/6
f 52/68/1 50/69/1 53/70/1
f 49/71/6 56/72/6 50/69/6
f 52/73/2 51/74/2 49/71/2
f 54/75/3 53/70/3 55/76/3
f 51/74/5 55/77/5 56/72/5
f 50/69/4 55/78/4 53/79/4
f 60/80/1 58/81/1 61/82/1
f 57/83/6 64/84/6 58/81/6
f 60/85/2 59/86/2 57/83/2
f 62/87/3 61/82/3 63/88/3
f 59/86/5 63/89/5 64/84/5
f 58/81/4 63/90/4 61/91/4
f 68/92/3 66/93/3 69/94/3
f 65/95/1 72/96/1 66/93/1
f 68/97/2 67/98/2 65/95/2
f 70/99/5 69/94/5 71/100/5
f 67/98/6 71/101/6 72/96/6
f 66/93/4 71/102/4 69/103/4
f 5/1/1 4/104/1 1/2/1
f 1/2/2 3/6/2 8/4/2
f 4/5/3 6/105/3 3/6/3
f 6/7/4 4/104/4 5/1/4
f 3/6/5 6/106/5 7/9/5
f 2/3/6 8/4/6 7/10/6
f 13/12/2 15/107/2 11/13/2
f 11/13/6 15/108/6 16/15/6
f 15/17/5 13/23/5 14/18/5
f 10/20/4 12/16/4 16/21/4
f 9/14/1 11/13/1 12/16/1
f 13/23/3 9/14/3 10/20/3
f 21/24/1 20/109/1 17/25/1
f 17/25/2 19/29/2 24/27/2
f 20/28/3 22/110/3 19/29/3
f 22/30/4 20/109/4 21/24/4
f 19/29/5 22/111/5 23/32/5
f 18/26/6 24/27/6 23/33/6
f 29/35/1 28/112/1 25/36/1
f 25/36/2 27/40/2 32/38/2
f 28/39/3 30/113/3 27/40/3
f 30/41/4 28/112/4 29/35/4
f 27/40/5 30/114/5 31/43/5
f 26/37/6 32/38/6 31/44/6
f 37/46/1 36/115/1 33/47/1
f 33/47/2 35/51/2 40/49/2
f 36/50/3 38/116/3 35/51/3
f 38/52/4 36/115/4 37/46/4
f 35/51/5 38/117/5 39/54/5
f 34/48/6 40/49/6 39/55/6
f 45/57/1 44/118/1 41/58/1
f 41/58/2 43/62/2 48/60/2
f 44/61/3 46/119/3 43/62/3
f 46/63/4 44/118/4 45/57/4
f 43/62/5 46/120/5 47/65/5
f 42/59/6 48/60/6 47/66/6
f 52/68/1 49/71/1 50/69/1
f 49/71/6 51/74/6 56/72/6
f 52/73/2 54/121/2 51/74/2
f 54/75/3 52/68/3 53/70/3
f 51/74/5 54/122/5 55/77/5
f 50/69/4 56/72/4 55/78/4
f 60/80/1 57/83/1 58/81/1
f 57/83/6 59/86/6 64/84/6
f 60/85/2 62/123/2 59/86/2
f 62/87/3 60/80/3 61/82/3
f 59/86/5 62/124/5 63/89/5
f 58/81/4 64/84/4 63/90/4
f 68/92/3 65/95/3 66/93/3
f 65/95/1 67/98/1 72/96/1
f 68/97/2 70/125/2 67/98/2
f 70/99/5 68/92/5 69/94/5
f 67/98/6 70/126/6 71/101/6
f 66/93/4 72/96/4 71/102/4
