# Blender 4.2.0
# www.blender.org
mtllib deathParticle.mtl
o 球
v 0.000000 0.866025 0.500000
v 0.000000 0.258819 0.965926
v 0.000000 -0.258819 0.965926
v 0.000000 -0.500000 0.866025
v -0.057593 0.965926 0.252330
v -0.111260 0.866025 0.487464
v -0.157346 0.707107 0.689378
v -0.192709 0.500000 0.844312
v -0.214939 0.258819 0.941708
v -0.222521 0.000000 0.974928
v -0.214939 -0.258819 0.941708
v -0.192709 -0.500000 0.844312
v -0.157346 -0.707107 0.689378
v -0.111260 -0.866025 0.487464
v -0.057593 -0.965926 0.252330
v -0.112297 0.965926 0.233188
v -0.216942 0.866025 0.450484
v -0.306802 0.707107 0.637081
v -0.375754 0.500000 0.780262
v -0.419100 0.258819 0.870269
v -0.433884 0.000000 0.900969
v -0.419100 -0.258819 0.870269
v -0.375754 -0.500000 0.780262
v -0.306802 -0.707107 0.637081
v -0.216942 -0.866025 0.450484
v -0.112297 -0.965926 0.233188
v -0.161371 0.965926 0.202353
v -0.311745 0.866025 0.390916
v -0.440874 0.707107 0.552838
v -0.539958 0.500000 0.677086
v -0.602245 0.258819 0.755191
v -0.623490 0.000000 0.781831
v -0.602245 -0.258819 0.755191
v -0.539958 -0.500000 0.677086
v -0.440874 -0.707107 0.552838
v -0.311745 -0.866025 0.390916
v -0.161371 -0.965926 0.202353
v -0.202353 0.965926 0.161371
v -0.390916 0.866025 0.311745
v -0.552838 0.707107 0.440874
v -0.677086 0.500000 0.539958
v -0.755191 0.258819 0.602245
v -0.781831 0.000000 0.623490
v -0.755191 -0.258819 0.602245
v -0.677086 -0.500000 0.539958
v -0.552838 -0.707107 0.440874
v -0.390916 -0.866025 0.311745
v -0.202353 -0.965926 0.161371
v -0.233188 0.965926 0.112297
v -0.450484 0.866025 0.216942
v -0.637081 0.707107 0.306802
v -0.780262 0.500000 0.375754
v -0.870269 0.258819 0.419099
v -0.900969 0.000000 0.433884
v -0.870269 -0.258819 0.419099
v -0.780262 -0.500000 0.375754
v -0.637081 -0.707107 0.306802
v -0.450484 -0.866025 0.216942
v -0.233188 -0.965926 0.112297
v -0.252330 0.965926 0.057593
v -0.487464 0.866025 0.111260
v -0.689378 0.707107 0.157346
v -0.844312 0.500000 0.192709
v -0.941708 0.258819 0.214939
v -0.974928 0.000000 0.222521
v -0.941708 -0.258819 0.214939
v -0.844312 -0.500000 0.192709
v -0.689378 -0.707107 0.157346
v -0.487464 -0.866025 0.111260
v -0.252330 -0.965926 0.057593
v -0.258819 0.965926 0.000000
v -0.500000 0.866025 -0.000000
v -0.707107 0.707107 0.000000
v -0.866025 0.500000 0.000000
v -0.965926 0.258819 0.000000
v -1.000000 0.000000 -0.000000
v -0.965926 -0.258819 0.000000
v -0.866025 -0.500000 0.000000
v -0.707107 -0.707107 0.000000
v -0.500000 -0.866025 -0.000000
v -0.258819 -0.965926 0.000000
v -0.252330 0.965926 -0.057593
v -0.487464 0.866025 -0.111260
v -0.689378 0.707107 -0.157346
v -0.844312 0.500000 -0.192709
v -0.941708 0.258819 -0.214939
v -0.974928 0.000000 -0.222521
v -0.941708 -0.258819 -0.214939
v -0.844312 -0.500000 -0.192709
v -0.689378 -0.707107 -0.157346
v -0.487464 -0.866025 -0.111260
v -0.252330 -0.965926 -0.057593
v -0.233188 0.965926 -0.112297
v -0.450484 0.866025 -0.216942
v -0.637081 0.707107 -0.306802
v -0.780262 0.500000 -0.375754
v -0.870269 0.258819 -0.419099
v -0.900969 0.000000 -0.433884
v -0.870269 -0.258819 -0.419099
v -0.780262 -0.500000 -0.375754
v -0.637081 -0.707107 -0.306802
v -0.450484 -0.866025 -0.216942
v -0.233188 -0.965926 -0.112297
v -0.202353 0.965926 -0.161371
v -0.390916 0.866025 -0.311745
v -0.552838 0.707107 -0.440874
v -0.677086 0.500000 -0.539958
v -0.755191 0.258819 -0.602245
v -0.781831 0.000000 -0.623490
v -0.755191 -0.258819 -0.602245
v -0.677086 -0.500000 -0.539958
v -0.552838 -0.707107 -0.440874
v -0.390916 -0.866025 -0.311745
v -0.202353 -0.965926 -0.161371
v -0.161371 0.965926 -0.202353
v -0.311745 0.866025 -0.390916
v -0.440874 0.707107 -0.552838
v -0.539958 0.500000 -0.677086
v -0.602245 0.258819 -0.755191
v -0.623490 0.000000 -0.781831
v -0.602245 -0.258819 -0.755191
v -0.539958 -0.500000 -0.677086
v -0.440874 -0.707107 -0.552838
v -0.311745 -0.866025 -0.390916
v -0.161371 -0.965926 -0.202353
v -0.112297 0.965926 -0.233188
v -0.216942 0.866025 -0.450484
v -0.306802 0.707107 -0.637081
v -0.375754 0.500000 -0.780262
v -0.419099 0.258819 -0.870269
v -0.433884 0.000000 -0.900969
v -0.419099 -0.258819 -0.870269
v -0.375754 -0.500000 -0.780262
v -0.306802 -0.707107 -0.637081
v -0.216942 -0.866025 -0.450484
v -0.112297 -0.965926 -0.233188
v -0.057593 0.965926 -0.252330
v -0.111260 0.866025 -0.487464
v -0.157346 0.707107 -0.689378
v -0.192709 0.500000 -0.844312
v -0.214939 0.258819 -0.941708
v -0.222521 0.000000 -0.974928
v -0.214939 -0.258819 -0.941708
v -0.192709 -0.500000 -0.844312
v -0.157346 -0.707107 -0.689378
v -0.111260 -0.866025 -0.487464
v -0.057593 -0.965926 -0.252330
v -0.000000 0.965926 -0.258819
v 0.000000 0.866025 -0.500000
v 0.000000 0.707107 -0.707107
v 0.000000 0.500000 -0.866025
v 0.000000 0.258819 -0.965926
v 0.000000 0.000000 -1.000000
v 0.000000 -0.258819 -0.965926
v 0.000000 -0.500000 -0.866025
v 0.000000 -0.707107 -0.707107
v 0.000000 -0.866025 -0.500000
v -0.000000 -0.965926 -0.258819
v 0.057593 0.965926 -0.252330
v 0.111260 0.866025 -0.487464
v 0.157346 0.707107 -0.689378
v 0.192709 0.500000 -0.844312
v 0.214939 0.258819 -0.941708
v 0.222521 0.000000 -0.974928
v 0.214939 -0.258819 -0.941708
v 0.192709 -0.500000 -0.844312
v 0.157346 -0.707107 -0.689378
v 0.111260 -0.866025 -0.487464
v 0.057593 -0.965926 -0.252330
v 0.112297 0.965926 -0.233188
v 0.216942 0.866025 -0.450484
v 0.306802 0.707107 -0.637081
v 0.375754 0.500000 -0.780262
v 0.419099 0.258819 -0.870269
v 0.433884 0.000000 -0.900968
v 0.419099 -0.258819 -0.870269
v 0.375754 -0.500000 -0.780262
v 0.306802 -0.707107 -0.637081
v 0.216942 -0.866025 -0.450484
v 0.112297 -0.965926 -0.233188
v 0.161371 0.965926 -0.202353
v 0.311745 0.866025 -0.390916
v 0.440874 0.707107 -0.552838
v 0.539958 0.500000 -0.677086
v 0.602245 0.258819 -0.755191
v 0.623490 0.000000 -0.781831
v 0.602245 -0.258819 -0.755191
v 0.539958 -0.500000 -0.677086
v 0.440874 -0.707107 -0.552838
v 0.311745 -0.866025 -0.390916
v 0.161371 -0.965926 -0.202353
v 0.202353 0.965926 -0.161371
v 0.390916 0.866025 -0.311745
v 0.552838 0.707107 -0.440874
v 0.677086 0.500000 -0.539958
v 0.755191 0.258819 -0.602245
v 0.781831 0.000000 -0.623490
v 0.755191 -0.258819 -0.602245
v 0.677086 -0.500000 -0.539958
v 0.552838 -0.707107 -0.440874
v 0.390916 -0.866025 -0.311745
v 0.202353 -0.965926 -0.161371
v 0.233188 0.965926 -0.112297
v 0.450484 0.866025 -0.216942
v 0.637081 0.707107 -0.306802
v 0.780262 0.500000 -0.375754
v 0.870269 0.258819 -0.419099
v 0.900968 0.000000 -0.433884
v 0.870269 -0.258819 -0.419099
v 0.780262 -0.500000 -0.375754
v 0.637081 -0.707107 -0.306802
v 0.450484 -0.866025 -0.216942
v 0.233188 -0.965926 -0.112297
v 0.252330 0.965926 -0.057593
v 0.487464 0.866025 -0.111260
v 0.689378 0.707107 -0.157346
v 0.844312 0.500000 -0.192709
v 0.941708 0.258819 -0.214939
v 0.974928 0.000000 -0.222521
v 0.941708 -0.258819 -0.214939
v 0.844312 -0.500000 -0.192709
v 0.689378 -0.707107 -0.157346
v 0.487464 -0.866025 -0.111260
v 0.252330 -0.965926 -0.057593
v 0.000000 1.000000 0.000000
v 0.258819 0.965926 -0.000000
v 0.500000 0.866025 0.000000
v 0.707107 0.707107 0.000000
v 0.866025 0.500000 0.000000
v 0.965926 0.258819 0.000000
v 1.000000 0.000000 0.000000
v 0.965926 -0.258819 0.000000
v 0.866025 -0.500000 0.000000
v 0.707107 -0.707107 0.000000
v 0.500000 -0.866025 0.000000
v 0.258819 -0.965926 -0.000000
v 0.252330 0.965926 0.057593
v 0.487464 0.866025 0.111260
v 0.689378 0.707107 0.157346
v 0.844312 0.500000 0.192709
v 0.941708 0.258819 0.214939
v 0.974927 0.000000 0.222521
v 0.941708 -0.258819 0.214939
v 0.844312 -0.500000 0.192709
v 0.689378 -0.707107 0.157346
v 0.487464 -0.866025 0.111260
v 0.252330 -0.965926 0.057593
v 0.233188 0.965926 0.112297
v 0.450484 0.866025 0.216942
v 0.637081 0.707107 0.306802
v 0.780262 0.500000 0.375754
v 0.870269 0.258819 0.419099
v 0.900968 0.000000 0.433884
v 0.870269 -0.258819 0.419099
v 0.780262 -0.500000 0.375754
v 0.637081 -0.707107 0.306802
v 0.450484 -0.866025 0.216942
v 0.233188 -0.965926 0.112297
v 0.202353 0.965926 0.161371
v 0.390916 0.866025 0.311745
v 0.552838 0.707107 0.440874
v 0.677086 0.500000 0.539958
v 0.755191 0.258819 0.602245
v 0.781831 0.000000 0.623490
v 0.755191 -0.258819 0.602245
v 0.677086 -0.500000 0.539958
v 0.552838 -0.707107 0.440874
v 0.390916 -0.866025 0.311745
v 0.202353 -0.965926 0.161371
v 0.161371 0.965926 0.202353
v 0.311745 0.866025 0.390916
v 0.440874 0.707107 0.552838
v 0.539958 0.500000 0.677086
v 0.602245 0.258819 0.755191
v 0.623490 0.000000 0.781831
v 0.602245 -0.258819 0.755191
v 0.539958 -0.500000 0.677086
v 0.440874 -0.707107 0.552838
v 0.311745 -0.866025 0.390916
v 0.161371 -0.965926 0.202353
v 0.112297 0.965926 0.233188
v 0.216942 0.866025 0.450484
v 0.306802 0.707107 0.637081
v 0.375754 0.500000 0.780262
v 0.419099 0.258819 0.870269
v 0.433884 0.000000 0.900968
v 0.419099 -0.258819 0.870269
v 0.375754 -0.500000 0.780262
v 0.306802 -0.707107 0.637081
v 0.216942 -0.866025 0.450484
v 0.112297 -0.965926 0.233188
v 0.057593 0.965926 0.252330
v 0.111260 0.866025 0.487464
v 0.157346 0.707107 0.689378
v 0.192709 0.500000 0.844312
v 0.214939 0.258819 0.941708
v 0.222521 0.000000 0.974928
v 0.214939 -0.258819 0.941708
v 0.192709 -0.500000 0.844312
v 0.157346 -0.707107 0.689378
v 0.111260 -0.866025 0.487464
v 0.057593 -0.965926 0.252330
v 0.000000 0.965926 0.258819
v 0.000000 0.707107 0.707107
v -0.000000 0.500000 0.866025
v -0.000000 0.000000 1.000000
v 0.000000 -0.707107 0.707107
v -0.000000 -0.866025 0.500000
v 0.000000 -0.965926 0.258819
v 0.000000 -1.000000 0.000000
vn -0.0000 0.8620 0.5069
vn -0.0000 0.2565 0.9665
vn -0.0000 -0.2565 0.9665
vn -0.0000 -0.4960 0.8683
vn -0.0595 0.9636 0.2608
vn -0.1128 0.8620 0.4942
vn -0.1584 0.7025 0.6939
vn -0.1932 0.4960 0.8465
vn -0.2151 0.2565 0.9423
vn -0.2225 -0.0000 0.9749
vn -0.2151 -0.2565 0.9423
vn -0.1932 -0.4960 0.8465
vn -0.1584 -0.7025 0.6939
vn -0.1128 -0.8620 0.4942
vn -0.0595 -0.9636 0.2608
vn -0.1161 0.9636 0.2410
vn -0.2199 0.8620 0.4567
vn -0.3088 0.7025 0.6412
vn -0.3767 0.4960 0.7823
vn -0.4194 0.2565 0.8708
vn -0.4339 -0.0000 0.9010
vn -0.4194 -0.2565 0.8708
vn -0.3767 -0.4960 0.7823
vn -0.3088 -0.7025 0.6412
vn -0.2199 -0.8620 0.4567
vn -0.1161 -0.9636 0.2410
vn -0.1668 0.9636 0.2091
vn -0.3161 0.8620 0.3963
vn -0.4437 0.7025 0.5564
vn -0.5414 0.4960 0.6789
vn -0.6026 0.2565 0.7557
vn -0.6235 -0.0000 0.7818
vn -0.6026 -0.2565 0.7557
vn -0.5414 -0.4960 0.6789
vn -0.4437 -0.7025 0.5564
vn -0.3161 -0.8620 0.3963
vn -0.1668 -0.9636 0.2091
vn -0.2091 0.9636 0.1668
vn -0.3963 0.8620 0.3161
vn -0.5564 0.7025 0.4437
vn -0.6789 0.4960 0.5414
vn -0.7557 0.2565 0.6026
vn -0.7818 -0.0000 0.6235
vn -0.7557 -0.2565 0.6026
vn -0.6789 -0.4960 0.5414
vn -0.5564 -0.7025 0.4437
vn -0.3963 -0.8620 0.3161
vn -0.2091 -0.9636 0.1668
vn -0.2410 0.9636 0.1161
vn -0.4567 0.8620 0.2199
vn -0.6412 0.7025 0.3088
vn -0.7823 0.4960 0.3767
vn -0.8708 0.2565 0.4194
vn -0.9010 -0.0000 0.4339
vn -0.8708 -0.2565 0.4194
vn -0.7823 -0.4960 0.3767
vn -0.6412 -0.7025 0.3088
vn -0.4567 -0.8620 0.2199
vn -0.2410 -0.9636 0.1161
vn -0.2608 0.9636 0.0595
vn -0.4942 0.8620 0.1128
vn -0.6939 0.7025 0.1584
vn -0.8465 0.4960 0.1932
vn -0.9423 0.2565 0.2151
vn -0.9749 -0.0000 0.2225
vn -0.9423 -0.2565 0.2151
vn -0.8465 -0.4960 0.1932
vn -0.6939 -0.7025 0.1584
vn -0.4942 -0.8620 0.1128
vn -0.2608 -0.9636 0.0595
vn -0.2675 0.9636 -0.0000
vn -0.5069 0.8620 -0.0000
vn -0.7117 0.7025 -0.0000
vn -0.8683 0.4960 -0.0000
vn -0.9665 0.2565 -0.0000
vn -1.0000 -0.0000 -0.0000
vn -0.9665 -0.2565 -0.0000
vn -0.8683 -0.4960 -0.0000
vn -0.7117 -0.7025 -0.0000
vn -0.5069 -0.8620 -0.0000
vn -0.2675 -0.9636 -0.0000
vn -0.2608 0.9636 -0.0595
vn -0.4942 0.8620 -0.1128
vn -0.6939 0.7025 -0.1584
vn -0.8465 0.4960 -0.1932
vn -0.9423 0.2565 -0.2151
vn -0.9749 -0.0000 -0.2225
vn -0.9423 -0.2565 -0.2151
vn -0.8465 -0.4960 -0.1932
vn -0.6939 -0.7025 -0.1584
vn -0.4942 -0.8620 -0.1128
vn -0.2608 -0.9636 -0.0595
vn -0.2410 0.9636 -0.1161
vn -0.4567 0.8620 -0.2199
vn -0.6412 0.7025 -0.3088
vn -0.7823 0.4960 -0.3768
vn -0.8708 0.2565 -0.4194
vn -0.9010 -0.0000 -0.4339
vn -0.8708 -0.2565 -0.4194
vn -0.7823 -0.4960 -0.3767
vn -0.6412 -0.7025 -0.3088
vn -0.4567 -0.8620 -0.2199
vn -0.2410 -0.9636 -0.1161
vn -0.2091 0.9636 -0.1668
vn -0.3963 0.8620 -0.3161
vn -0.5564 0.7025 -0.4437
vn -0.6789 0.4960 -0.5414
vn -0.7557 0.2565 -0.6026
vn -0.7818 -0.0000 -0.6235
vn -0.7557 -0.2565 -0.6026
vn -0.6789 -0.4960 -0.5414
vn -0.5564 -0.7025 -0.4437
vn -0.3963 -0.8620 -0.3161
vn -0.2091 -0.9636 -0.1668
vn -0.1668 0.9636 -0.2091
vn -0.3161 0.8620 -0.3963
vn -0.4437 0.7025 -0.5564
vn -0.5414 0.4960 -0.6789
vn -0.6026 0.2565 -0.7557
vn -0.6235 -0.0000 -0.7818
vn -0.6026 -0.2565 -0.7557
vn -0.5414 -0.4960 -0.6789
vn -0.4437 -0.7025 -0.5564
vn -0.3161 -0.8620 -0.3963
vn -0.1668 -0.9636 -0.2091
vn -0.1161 0.9636 -0.2410
vn -0.2199 0.8620 -0.4567
vn -0.3088 0.7025 -0.6412
vn -0.3767 0.4960 -0.7823
vn -0.4194 0.2565 -0.8708
vn -0.4339 -0.0000 -0.9010
vn -0.4194 -0.2565 -0.8708
vn -0.3768 -0.4960 -0.7823
vn -0.3088 -0.7025 -0.6412
vn -0.2199 -0.8620 -0.4567
vn -0.1161 -0.9636 -0.2410
vn -0.0595 0.9636 -0.2608
vn -0.1128 0.8620 -0.4942
vn -0.1584 0.7025 -0.6939
vn -0.1932 0.4960 -0.8465
vn -0.2151 0.2565 -0.9423
vn -0.2225 -0.0000 -0.9749
vn -0.2151 -0.2565 -0.9423
vn -0.1932 -0.4960 -0.8465
vn -0.1584 -0.7025 -0.6939
vn -0.1128 -0.8620 -0.4942
vn -0.0595 -0.9636 -0.2608
vn -0.0000 0.9636 -0.2675
vn -0.0000 0.8620 -0.5069
vn -0.0000 0.7025 -0.7117
vn -0.0000 0.4960 -0.8683
vn -0.0000 0.2565 -0.9665
vn -0.0000 -0.0000 -1.0000
vn -0.0000 -0.2565 -0.9665
vn -0.0000 -0.4960 -0.8683
vn -0.0000 -0.7025 -0.7117
vn -0.0000 -0.8620 -0.5069
vn -0.0000 -0.9636 -0.2675
vn 0.0595 0.9636 -0.2608
vn 0.1128 0.8620 -0.4942
vn 0.1584 0.7025 -0.6939
vn 0.1932 0.4960 -0.8465
vn 0.2151 0.2565 -0.9423
vn 0.2225 -0.0000 -0.9749
vn 0.2151 -0.2565 -0.9423
vn 0.1932 -0.4960 -0.8465
vn 0.1584 -0.7025 -0.6939
vn 0.1128 -0.8620 -0.4942
vn 0.0595 -0.9636 -0.2608
vn 0.1161 0.9636 -0.2410
vn 0.2199 0.8620 -0.4567
vn 0.3088 0.7025 -0.6412
vn 0.3767 0.4960 -0.7823
vn 0.4194 0.2565 -0.8708
vn 0.4339 -0.0000 -0.9010
vn 0.4194 -0.2565 -0.8708
vn 0.3767 -0.4960 -0.7823
vn 0.3088 -0.7025 -0.6412
vn 0.2199 -0.8620 -0.4567
vn 0.1161 -0.9636 -0.2410
vn 0.1668 0.9636 -0.2091
vn 0.3161 0.8620 -0.3963
vn 0.4437 0.7025 -0.5564
vn 0.5414 0.4960 -0.6789
vn 0.6026 0.2565 -0.7557
vn 0.6235 -0.0000 -0.7818
vn 0.6026 -0.2565 -0.7557
vn 0.5414 -0.4960 -0.6789
vn 0.4437 -0.7025 -0.5564
vn 0.3161 -0.8620 -0.3963
vn 0.1668 -0.9636 -0.2091
vn 0.2091 0.9636 -0.1668
vn 0.3963 0.8620 -0.3161
vn 0.5564 0.7025 -0.4437
vn 0.6789 0.4960 -0.5414
vn 0.7557 0.2565 -0.6026
vn 0.7818 -0.0000 -0.6235
vn 0.7557 -0.2565 -0.6026
vn 0.6789 -0.4960 -0.5414
vn 0.5564 -0.7025 -0.4437
vn 0.3963 -0.8620 -0.3161
vn 0.2091 -0.9636 -0.1668
vn 0.2410 0.9636 -0.1161
vn 0.4567 0.8620 -0.2199
vn 0.6412 0.7025 -0.3088
vn 0.7823 0.4960 -0.3767
vn 0.8708 0.2565 -0.4194
vn 0.9010 -0.0000 -0.4339
vn 0.8708 -0.2565 -0.4194
vn 0.7823 -0.4960 -0.3768
vn 0.6412 -0.7025 -0.3088
vn 0.4567 -0.8620 -0.2199
vn 0.2410 -0.9636 -0.1161
vn 0.2608 0.9636 -0.0595
vn 0.4942 0.8620 -0.1128
vn 0.6939 0.7025 -0.1584
vn 0.8465 0.4960 -0.1932
vn 0.9423 0.2565 -0.2151
vn 0.9749 -0.0000 -0.2225
vn 0.9423 -0.2565 -0.2151
vn 0.8465 -0.4960 -0.1932
vn 0.6939 -0.7025 -0.1584
vn 0.4942 -0.8620 -0.1128
vn 0.2608 -0.9636 -0.0595
vn -0.0000 1.0000 -0.0000
vn 0.2675 0.9636 -0.0000
vn 0.5069 0.8620 -0.0000
vn 0.7117 0.7025 -0.0000
vn 0.8683 0.4960 -0.0000
vn 0.9665 0.2565 -0.0000
vn 1.0000 -0.0000 -0.0000
vn 0.9665 -0.2565 -0.0000
vn 0.8683 -0.4960 -0.0000
vn 0.7117 -0.7025 -0.0000
vn 0.5069 -0.8620 -0.0000
vn 0.2675 -0.9636 -0.0000
vn 0.2608 0.9636 0.0595
vn 0.4942 0.8620 0.1128
vn 0.6939 0.7025 0.1584
vn 0.8465 0.4960 0.1932
vn 0.9423 0.2565 0.2151
vn 0.9749 -0.0000 0.2225
vn 0.9423 -0.2565 0.2151
vn 0.8465 -0.4960 0.1932
vn 0.6939 -0.7025 0.1584
vn 0.4942 -0.8620 0.1128
vn 0.2608 -0.9636 0.0595
vn 0.2410 0.9636 0.1161
vn 0.4567 0.8620 0.2199
vn 0.6412 0.7025 0.3088
vn 0.7823 0.4960 0.3767
vn 0.8708 0.2565 0.4194
vn 0.9010 -0.0000 0.4339
vn 0.8708 -0.2565 0.4194
vn 0.7823 -0.4960 0.3767
vn 0.6412 -0.7025 0.3088
vn 0.4567 -0.8620 0.2199
vn 0.2410 -0.9636 0.1161
vn 0.2091 0.9636 0.1668
vn 0.3963 0.8620 0.3161
vn 0.5564 0.7025 0.4437
vn 0.6789 0.4960 0.5414
vn 0.7557 0.2565 0.6026
vn 0.7818 -0.0000 0.6235
vn 0.7557 -0.2565 0.6026
vn 0.6789 -0.4960 0.5414
vn 0.5564 -0.7025 0.4437
vn 0.3963 -0.8620 0.3161
vn 0.2091 -0.9636 0.1668
vn 0.1668 0.9636 0.2091
vn 0.3161 0.8620 0.3963
vn 0.4437 0.7025 0.5564
vn 0.5414 0.4960 0.6789
vn 0.6026 0.2565 0.7557
vn 0.6235 -0.0000 0.7818
vn 0.6026 -0.2565 0.7557
vn 0.5414 -0.4960 0.6789
vn 0.4437 -0.7025 0.5564
vn 0.3161 -0.8620 0.3963
vn 0.1668 -0.9636 0.2091
vn 0.1161 0.9636 0.2410
vn 0.2199 0.8620 0.4567
vn 0.3088 0.7025 0.6412
vn 0.3767 0.4960 0.7823
vn 0.4194 0.2565 0.8708
vn 0.4339 -0.0000 0.9010
vn 0.4194 -0.2565 0.8708
vn 0.3768 -0.4960 0.7823
vn 0.3088 -0.7025 0.6412
vn 0.2199 -0.8620 0.4567
vn 0.1161 -0.9636 0.2410
vn 0.0595 0.9636 0.2608
vn 0.1128 0.8620 0.4942
vn 0.1584 0.7025 0.6939
vn 0.1932 0.4960 0.8465
vn 0.2151 0.2565 0.9423
vn 0.2225 -0.0000 0.9749
vn 0.2151 -0.2565 0.9423
vn 0.1932 -0.4960 0.8465
vn 0.1584 -0.7025 0.6939
vn 0.1128 -0.8620 0.4942
vn 0.0595 -0.9636 0.2608
vn -0.0000 0.9636 0.2675
vn -0.0000 0.7025 0.7117
vn -0.0000 0.4960 0.8683
vn -0.0000 -0.0000 1.0000
vn -0.0000 -0.7025 0.7117
vn -0.0000 -0.8620 0.5069
vn -0.0000 -0.9636 0.2675
vn -0.0000 -1.0000 -0.0000
vt 0.750000 0.500000
vt 0.714286 0.416667
vt 0.750000 0.416667
vt 0.750000 0.666667
vt 0.714286 0.750000
vt 0.714286 0.666667
vt 0.750000 0.166667
vt 0.714286 0.083333
vt 0.750000 0.083333
vt 0.750000 0.916667
vt 0.732143 1.000000
vt 0.714286 0.916667
vt 0.714286 0.333333
vt 0.750000 0.333333
vt 0.714286 0.583333
vt 0.750000 0.583333
vt 0.732143 0.000000
vt 0.714286 0.833333
vt 0.750000 0.833333
vt 0.714286 0.250000
vt 0.750000 0.250000
vt 0.714286 0.500000
vt 0.750000 0.750000
vt 0.714286 0.166667
vt 0.696429 0.000000
vt 0.678571 0.083333
vt 0.678571 0.833333
vt 0.678571 0.250000
vt 0.678571 0.500000
vt 0.678571 0.750000
vt 0.678571 0.166667
vt 0.678571 0.416667
vt 0.678571 0.666667
vt 0.696429 1.000000
vt 0.678571 0.916667
vt 0.678571 0.333333
vt 0.678571 0.583333
vt 0.642857 0.750000
vt 0.642857 0.666667
vt 0.642857 0.083333
vt 0.660714 1.000000
vt 0.642857 0.916667
vt 0.642857 0.333333
vt 0.642857 0.583333
vt 0.660714 0.000000
vt 0.642857 0.833333
vt 0.642857 0.250000
vt 0.642857 0.500000
vt 0.642857 0.166667
vt 0.642857 0.416667
vt 0.607143 0.750000
vt 0.607143 0.166667
vt 0.607143 0.500000
vt 0.607143 0.416667
vt 0.607143 0.666667
vt 0.607143 0.083333
vt 0.625000 1.000000
vt 0.607143 0.916667
vt 0.607143 0.333333
vt 0.607143 0.583333
vt 0.625000 0.000000
vt 0.607143 0.833333
vt 0.607143 0.250000
vt 0.571429 0.583333
vt 0.589286 0.000000
vt 0.571429 0.083333
vt 0.571429 0.833333
vt 0.571429 0.333333
vt 0.571429 0.250000
vt 0.571429 0.500000
vt 0.571429 0.750000
vt 0.571429 0.166667
vt 0.571429 0.416667
vt 0.571429 0.666667
vt 0.589286 1.000000
vt 0.571429 0.916667
vt 0.535714 0.666667
vt 0.535714 0.083333
vt 0.553571 1.000000
vt 0.535714 0.916667
vt 0.535714 0.333333
vt 0.535714 0.583333
vt 0.553571 0.000000
vt 0.535714 0.833333
vt 0.535714 0.250000
vt 0.535714 0.500000
vt 0.535714 0.750000
vt 0.535714 0.166667
vt 0.535714 0.416667
vt 0.500000 0.500000
vt 0.500000 0.750000
vt 0.500000 0.250000
vt 0.500000 0.166667
vt 0.500000 0.416667
vt 0.500000 0.666667
vt 0.500000 0.083333
vt 0.517857 1.000000
vt 0.500000 0.916667
vt 0.500000 0.333333
vt 0.500000 0.583333
vt 0.517857 0.000000
vt 0.500000 0.833333
vt 0.464286 0.583333
vt 0.482143 0.000000
vt 0.464286 0.083333
vt 0.464286 0.916667
vt 0.464286 0.833333
vt 0.464286 0.250000
vt 0.464286 0.500000
vt 0.464286 0.750000
vt 0.464286 0.166667
vt 0.464286 0.416667
vt 0.464286 0.666667
vt 0.482143 1.000000
vt 0.464286 0.333333
vt 0.428571 0.416667
vt 0.428571 0.666667
vt 0.428571 0.166667
vt 0.428571 0.083333
vt 0.446429 1.000000
vt 0.428571 0.916667
vt 0.428571 0.333333
vt 0.428571 0.583333
vt 0.446429 0.000000
vt 0.428571 0.833333
vt 0.428571 0.250000
vt 0.428571 0.500000
vt 0.428571 0.750000
vt 0.392857 0.500000
vt 0.392857 0.833333
vt 0.392857 0.750000
vt 0.392857 0.166667
vt 0.392857 0.416667
vt 0.392857 0.666667
vt 0.392857 0.083333
vt 0.410714 1.000000
vt 0.392857 0.916667
vt 0.392857 0.333333
vt 0.392857 0.583333
vt 0.410714 0.000000
vt 0.392857 0.250000
vt 0.357143 0.333333
vt 0.357143 0.666667
vt 0.357143 0.583333
vt 0.375000 0.000000
vt 0.357143 0.083333
vt 0.357143 0.916667
vt 0.357143 0.833333
vt 0.357143 0.250000
vt 0.357143 0.500000
vt 0.357143 0.750000
vt 0.357143 0.166667
vt 0.357143 0.416667
vt 0.375000 1.000000
vt 0.321429 0.500000
vt 0.321429 0.416667
vt 0.321429 0.666667
vt 0.321429 0.166667
vt 0.321429 0.083333
vt 0.339286 1.000000
vt 0.321429 0.916667
vt 0.321429 0.333333
vt 0.321429 0.583333
vt 0.339286 0.000000
vt 0.321429 0.833333
vt 0.321429 0.250000
vt 0.321429 0.750000
vt 0.285714 0.250000
vt 0.285714 0.500000
vt 0.285714 0.750000
vt 0.285714 0.166667
vt 0.285714 0.416667
vt 0.285714 0.666667
vt 0.285714 0.083333
vt 0.303571 1.000000
vt 0.285714 0.916667
vt 0.285714 0.333333
vt 0.285714 0.583333
vt 0.303571 0.000000
vt 0.285714 0.833333
vt 0.267857 1.000000
vt 0.250000 0.916667
vt 0.250000 0.333333
vt 0.250000 0.583333
vt 0.267857 0.000000
vt 0.250000 0.083333
vt 0.250000 0.833333
vt 0.250000 0.250000
vt 0.250000 0.500000
vt 0.250000 0.750000
vt 0.250000 0.166667
vt 0.250000 0.416667
vt 0.250000 0.666667
vt 0.214286 0.166667
vt 0.214286 0.500000
vt 0.214286 0.416667
vt 0.214286 0.666667
vt 0.214286 0.083333
vt 0.232143 1.000000
vt 0.214286 0.916667
vt 0.214286 0.333333
vt 0.214286 0.583333
vt 0.232143 0.000000
vt 0.214286 0.833333
vt 0.214286 0.250000
vt 0.214286 0.750000
vt 0.178571 0.833333
vt 0.178571 0.250000
vt 0.178571 0.500000
vt 0.178571 0.750000
vt 0.178571 0.166667
vt 0.178571 0.416667
vt 0.178571 0.666667
vt 0.178571 0.083333
vt 0.196429 1.000000
vt 0.178571 0.916667
vt 0.178571 0.333333
vt 0.178571 0.583333
vt 0.196429 0.000000
vt 0.142857 0.083333
vt 0.160714 1.000000
vt 0.142857 0.916667
vt 0.142857 0.333333
vt 0.142857 0.583333
vt 0.160714 0.000000
vt 0.142857 0.833333
vt 0.142857 0.250000
vt 0.142857 0.500000
vt 0.142857 0.750000
vt 0.142857 0.166667
vt 0.142857 0.416667
vt 0.142857 0.666667
vt 0.107143 0.833333
vt 0.107143 0.750000
vt 0.107143 0.166667
vt 0.107143 0.500000
vt 0.107143 0.416667
vt 0.107143 0.666667
vt 0.107143 0.083333
vt 0.125000 1.000000
vt 0.107143 0.916667
vt 0.107143 0.333333
vt 0.107143 0.583333
vt 0.125000 0.000000
vt 0.107143 0.250000
vt 0.089286 0.000000
vt 0.071429 0.083333
vt 0.071429 0.833333
vt 0.071429 0.333333
vt 0.071429 0.250000
vt 0.071429 0.500000
vt 0.071429 0.750000
vt 0.071429 0.166667
vt 0.071429 0.416667
vt 0.071429 0.666667
vt 0.089286 1.000000
vt 0.071429 0.916667
vt 0.071429 0.583333
vt 0.035714 0.666667
vt 0.035714 0.083333
vt 0.053571 1.000000
vt 0.035714 0.916667
vt 0.035714 0.333333
vt 0.035714 0.583333
vt 0.053571 0.000000
vt 0.035714 0.833333
vt 0.035714 0.250000
vt 0.035714 0.500000
vt 0.035714 0.750000
vt 0.035714 0.166667
vt 0.035714 0.416667
vt 0.000000 0.750000
vt 0.000000 0.250000
vt 0.000000 0.166667
vt 0.000000 0.500000
vt 0.000000 0.416667
vt 0.000000 0.666667
vt 0.000000 0.083333
vt 0.017857 1.000000
vt 0.000000 0.916667
vt 0.000000 0.333333
vt 0.000000 0.583333
vt 0.017857 0.000000
vt 0.000000 0.833333
vt 1.000000 0.666667
vt 0.964286 0.583333
vt 1.000000 0.583333
vt 0.982143 0.000000
vt 1.000000 0.083333
vt 0.964286 0.083333
vt 1.000000 0.833333
vt 0.964286 0.916667
vt 0.964286 0.833333
vt 1.000000 0.333333
vt 0.964286 0.250000
vt 1.000000 0.250000
vt 0.964286 0.500000
vt 1.000000 0.500000
vt 0.964286 0.750000
vt 1.000000 0.750000
vt 0.964286 0.166667
vt 1.000000 0.166667
vt 0.964286 0.416667
vt 1.000000 0.416667
vt 0.964286 0.666667
vt 1.000000 0.916667
vt 0.982143 1.000000
vt 0.964286 0.333333
vt 0.928571 0.750000
vt 0.928571 0.666667
vt 0.928571 0.083333
vt 0.946429 1.000000
vt 0.928571 0.916667
vt 0.928571 0.333333
vt 0.928571 0.583333
vt 0.946429 0.000000
vt 0.928571 0.833333
vt 0.928571 0.250000
vt 0.928571 0.500000
vt 0.928571 0.166667
vt 0.928571 0.416667
vt 0.892857 0.500000
vt 0.892857 0.750000
vt 0.892857 0.166667
vt 0.892857 0.416667
vt 0.892857 0.666667
vt 0.892857 0.083333
vt 0.910714 1.000000
vt 0.892857 0.916667
vt 0.892857 0.333333
vt 0.892857 0.583333
vt 0.910714 0.000000
vt 0.892857 0.833333
vt 0.892857 0.250000
vt 0.857143 0.666667
vt 0.857143 0.583333
vt 0.875000 0.000000
vt 0.857143 0.083333
vt 0.857143 0.833333
vt 0.857143 0.250000
vt 0.857143 0.500000
vt 0.857143 0.750000
vt 0.857143 0.166667
vt 0.857143 0.416667
vt 0.875000 1.000000
vt 0.857143 0.916667
vt 0.857143 0.333333
vt 0.821429 0.500000
vt 0.821429 0.416667
vt 0.821429 0.666667
vt 0.821429 0.083333
vt 0.839286 1.000000
vt 0.821429 0.916667
vt 0.821429 0.333333
vt 0.821429 0.583333
vt 0.839286 0.000000
vt 0.821429 0.833333
vt 0.821429 0.250000
vt 0.821429 0.750000
vt 0.821429 0.166667
vt 0.785714 0.500000
vt 0.785714 0.833333
vt 0.785714 0.750000
vt 0.785714 0.166667
vt 0.785714 0.416667
vt 0.785714 0.666667
vt 0.785714 0.083333
vt 0.803571 1.000000
vt 0.785714 0.916667
vt 0.785714 0.333333
vt 0.785714 0.583333
vt 0.803571 0.000000
vt 0.785714 0.250000
vt 0.767857 0.000000
vt 0.767857 1.000000
s 1
usemtl マテリアル
f 306/1/306 11/2/11 3/3/3
f 305/4/305 7/5/7 8/6/8
f 308/7/308 15/8/15 309/9/309
f 303/10/303 225/11/225 5/12/5
f 3/3/3 12/13/12 4/14/4
f 305/4/305 9/15/9 2/16/2
f 310/17/310 309/9/309 15/8/15
f 303/10/303 6/18/6 1/19/1
f 4/14/4 13/20/13 307/21/307
f 2/16/2 10/22/10 306/1/306
f 304/23/304 6/18/6 7/5/7
f 307/21/307 14/24/14 308/7/308
f 310/25/310 15/8/15 26/26/26
f 5/12/5 17/27/17 6/18/6
f 12/13/12 24/28/24 13/20/13
f 9/15/9 21/29/21 10/22/10
f 6/18/6 18/30/18 7/5/7
f 13/20/13 25/31/25 14/24/14
f 10/22/10 22/32/22 11/2/11
f 7/5/7 19/33/19 8/6/8
f 14/24/14 26/26/26 15/8/15
f 5/12/5 225/34/225 16/35/16
f 11/2/11 23/36/23 12/13/12
f 9/15/9 19/33/19 20/37/20
f 19/33/19 29/38/29 30/39/30
f 25/31/25 37/40/37 26/26/26
f 16/35/16 225/41/225 27/42/27
f 22/32/22 34/43/34 23/36/23
f 20/37/20 30/39/30 31/44/31
f 310/45/310 26/26/26 37/40/37
f 16/35/16 28/46/28 17/27/17
f 23/36/23 35/47/35 24/28/24
f 21/29/21 31/44/31 32/48/32
f 17/27/17 29/38/29 18/30/18
f 24/28/24 36/49/36 25/31/25
f 21/29/21 33/50/33 22/32/22
f 28/46/28 40/51/40 29/38/29
f 35/47/35 47/52/47 36/49/36
f 33/50/33 43/53/43 44/54/44
f 29/38/29 41/55/41 30/39/30
f 37/40/37 47/52/47 48/56/48
f 27/42/27 225/57/225 38/58/38
f 33/50/33 45/59/45 34/43/34
f 30/39/30 42/60/42 31/44/31
f 310/61/310 37/40/37 48/56/48
f 27/42/27 39/62/39 28/46/28
f 34/43/34 46/63/46 35/47/35
f 31/44/31 43/53/43 32/48/32
f 41/55/41 53/64/53 42/60/42
f 310/65/310 48/56/48 59/66/59
f 38/58/38 50/67/50 39/62/39
f 46/63/46 56/68/56 57/69/57
f 42/60/42 54/70/54 43/53/43
f 39/62/39 51/71/51 40/51/40
f 46/63/46 58/72/58 47/52/47
f 44/54/44 54/70/54 55/73/55
f 40/51/40 52/74/52 41/55/41
f 47/52/47 59/66/59 48/56/48
f 38/58/38 225/75/225 49/76/49
f 44/54/44 56/68/56 45/59/45
f 51/71/51 63/77/63 52/74/52
f 58/72/58 70/78/70 59/66/59
f 49/76/49 225/79/225 60/80/60
f 55/73/55 67/81/67 56/68/56
f 52/74/52 64/82/64 53/64/53
f 310/83/310 59/66/59 70/78/70
f 49/76/49 61/84/61 50/67/50
f 57/69/57 67/81/67 68/85/68
f 53/64/53 65/86/65 54/70/54
f 50/67/50 62/87/62 51/71/51
f 57/69/57 69/88/69 58/72/58
f 54/70/54 66/89/66 55/73/55
f 64/82/64 76/90/76 65/86/65
f 61/84/61 73/91/73 62/87/62
f 69/88/69 79/92/79 80/93/80
f 65/86/65 77/94/77 66/89/66
f 62/87/62 74/95/74 63/77/63
f 69/88/69 81/96/81 70/78/70
f 60/80/60 225/97/225 71/98/71
f 66/89/66 78/99/78 67/81/67
f 64/82/64 74/95/74 75/100/75
f 310/101/310 70/78/70 81/96/81
f 60/80/60 72/102/72 61/84/61
f 68/85/68 78/99/78 79/92/79
f 74/95/74 86/103/86 75/100/75
f 310/104/310 81/96/81 92/105/92
f 72/102/72 82/106/82 83/107/83
f 78/99/78 90/108/90 79/92/79
f 75/100/75 87/109/87 76/90/76
f 72/102/72 84/110/84 73/91/73
f 80/93/80 90/108/90 91/111/91
f 76/90/76 88/112/88 77/94/77
f 73/91/73 85/113/85 74/95/74
f 80/93/80 92/105/92 81/96/81
f 71/98/71 225/114/225 82/106/82
f 77/94/77 89/115/89 78/99/78
f 87/109/87 99/116/99 88/112/88
f 84/110/84 96/117/96 85/113/85
f 92/105/92 102/118/102 103/119/103
f 82/106/82 225/120/225 93/121/93
f 88/112/88 100/122/100 89/115/89
f 85/113/85 97/123/97 86/103/86
f 310/124/310 92/105/92 103/119/103
f 82/106/82 94/125/94 83/107/83
f 89/115/89 101/126/101 90/108/90
f 86/103/86 98/127/98 87/109/87
f 83/107/83 95/128/95 84/110/84
f 91/111/91 101/126/101 102/118/102
f 97/123/97 109/129/109 98/127/98
f 95/128/95 105/130/105 106/131/106
f 101/126/101 113/132/113 102/118/102
f 98/127/98 110/133/110 99/116/99
f 95/128/95 107/134/107 96/117/96
f 103/119/103 113/132/113 114/135/114
f 93/121/93 225/136/225 104/137/104
f 99/116/99 111/138/111 100/122/100
f 96/117/96 108/139/108 97/123/97
f 310/140/310 103/119/103 114/135/114
f 93/121/93 105/130/105 94/125/94
f 100/122/100 112/141/112 101/126/101
f 110/133/110 122/142/122 111/138/111
f 108/139/108 118/143/118 119/144/119
f 310/145/310 114/135/114 125/146/125
f 105/130/105 115/147/115 116/148/116
f 111/138/111 123/149/123 112/141/112
f 108/139/108 120/150/120 109/129/109
f 106/131/106 116/148/116 117/151/117
f 112/141/112 124/152/124 113/132/113
f 110/133/110 120/150/120 121/153/121
f 106/131/106 118/143/118 107/134/107
f 113/132/113 125/146/125 114/135/114
f 104/137/104 225/154/225 115/147/115
f 121/153/121 131/155/131 132/156/132
f 117/151/117 129/157/129 118/143/118
f 125/146/125 135/158/135 136/159/136
f 115/147/115 225/160/225 126/161/126
f 121/153/121 133/162/133 122/142/122
f 119/144/119 129/157/129 130/163/130
f 310/164/310 125/146/125 136/159/136
f 115/147/115 127/165/127 116/148/116
f 123/149/123 133/162/133 134/166/134
f 119/144/119 131/155/131 120/150/120
f 116/148/116 128/167/128 117/151/117
f 123/149/123 135/158/135 124/152/124
f 133/162/133 145/168/145 134/166/134
f 130/163/130 142/169/142 131/155/131
f 127/165/127 139/170/139 128/167/128
f 134/166/134 146/171/146 135/158/135
f 131/155/131 143/172/143 132/156/132
f 128/167/128 140/173/140 129/157/129
f 135/158/135 147/174/147 136/159/136
f 126/161/126 225/175/225 137/176/137
f 132/156/132 144/177/144 133/162/133
f 130/163/130 140/173/140 141/178/141
f 310/179/310 136/159/136 147/174/147
f 127/165/127 137/176/137 138/180/138
f 137/176/137 225/181/225 148/182/148
f 143/172/143 155/183/155 144/177/144
f 140/173/140 152/184/152 141/178/141
f 310/185/310 147/174/147 158/186/158
f 137/176/137 149/187/149 138/180/138
f 144/177/144 156/188/156 145/168/145
f 141/178/141 153/189/153 142/169/142
f 138/180/138 150/190/150 139/170/139
f 145/168/145 157/191/157 146/171/146
f 143/172/143 153/189/153 154/192/154
f 139/170/139 151/193/151 140/173/140
f 147/174/147 157/191/157 158/186/158
f 156/188/156 168/194/168 157/191/157
f 154/192/154 164/195/164 165/196/165
f 150/190/150 162/197/162 151/193/151
f 157/191/157 169/198/169 158/186/158
f 148/182/148 225/199/225 159/200/159
f 154/192/154 166/201/166 155/183/155
f 151/193/151 163/202/163 152/184/152
f 310/203/310 158/186/158 169/198/169
f 148/182/148 160/204/160 149/187/149
f 155/183/155 167/205/167 156/188/156
f 152/184/152 164/195/164 153/189/153
f 149/187/149 161/206/161 150/190/150
f 159/200/159 171/207/171 160/204/160
f 166/201/166 178/208/178 167/205/167
f 163/202/163 175/209/175 164/195/164
f 160/204/160 172/210/172 161/206/161
f 167/205/167 179/211/179 168/194/168
f 164/195/164 176/212/176 165/196/165
f 162/197/162 172/210/172 173/213/173
f 168/194/168 180/214/180 169/198/169
f 159/200/159 225/215/225 170/216/170
f 165/196/165 177/217/177 166/201/166
f 162/197/162 174/218/174 163/202/163
f 310/219/310 169/198/169 180/214/180
f 179/211/179 191/220/191 180/214/180
f 170/216/170 225/221/225 181/222/181
f 176/212/176 188/223/188 177/217/177
f 173/213/173 185/224/185 174/218/174
f 310/225/310 180/214/180 191/220/191
f 171/207/171 181/222/181 182/226/182
f 177/217/177 189/227/189 178/208/178
f 174/218/174 186/228/186 175/209/175
f 171/207/171 183/229/183 172/210/172
f 178/208/178 190/230/190 179/211/179
f 176/212/176 186/228/186 187/231/187
f 172/210/172 184/232/184 173/213/173
f 183/229/183 193/233/193 194/234/194
f 189/227/189 201/235/201 190/230/190
f 187/231/187 197/236/197 198/237/198
f 183/229/183 195/238/195 184/232/184
f 190/230/190 202/239/202 191/220/191
f 181/222/181 225/240/225 192/241/192
f 187/231/187 199/242/199 188/223/188
f 185/224/185 195/238/195 196/243/196
f 310/244/310 191/220/191 202/239/202
f 181/222/181 193/233/193 182/226/182
f 188/223/188 200/245/200 189/227/189
f 185/224/185 197/236/197 186/228/186
f 310/246/310 202/239/202 213/247/213
f 192/241/192 204/248/204 193/233/193
f 200/245/200 210/249/210 211/250/211
f 196/243/196 208/251/208 197/236/197
f 193/233/193 205/252/205 194/234/194
f 200/245/200 212/253/212 201/235/201
f 198/237/198 208/251/208 209/254/209
f 194/234/194 206/255/206 195/238/195
f 201/235/201 213/247/213 202/239/202
f 192/241/192 225/256/225 203/257/203
f 198/237/198 210/249/210 199/242/199
f 196/243/196 206/255/206 207/258/207
f 205/252/205 217/259/217 206/255/206
f 212/253/212 224/260/224 213/247/213
f 203/257/203 225/261/225 214/262/214
f 209/254/209 221/263/221 210/249/210
f 207/258/207 217/259/217 218/264/218
f 310/265/310 213/247/213 224/260/224
f 204/248/204 214/262/214 215/266/215
f 210/249/210 222/267/222 211/250/211
f 207/258/207 219/268/219 208/251/208
f 205/252/205 215/266/215 216/269/216
f 211/250/211 223/270/223 212/253/212
f 209/254/209 219/268/219 220/271/220
f 215/266/215 228/272/228 216/269/216
f 223/270/223 234/273/234 235/274/235
f 220/271/220 231/275/231 232/276/232
f 216/269/216 229/277/229 217/259/217
f 223/270/223 236/278/236 224/260/224
f 214/262/214 225/279/225 226/280/226
f 220/271/220 233/281/233 221/263/221
f 218/264/218 229/277/229 230/282/230
f 310/283/310 224/260/224 236/278/236
f 214/262/214 227/284/227 215/266/215
f 221/263/221 234/273/234 222/267/222
f 218/264/218 231/275/231 219/268/219
f 229/285/229 241/286/241 230/287/230
f 310/288/310 236/289/236 247/290/247
f 227/291/227 237/292/237 238/293/238
f 233/294/233 245/295/245 234/296/234
f 230/287/230 242/297/242 231/298/231
f 227/291/227 239/299/239 228/300/228
f 234/296/234 246/301/246 235/302/235
f 231/298/231 243/303/243 232/304/232
f 228/300/228 240/305/240 229/285/229
f 236/289/236 246/301/246 247/290/247
f 226/306/226 225/307/225 237/292/237
f 232/304/232 244/308/244 233/294/233
f 240/305/240 250/309/250 251/310/251
f 246/301/246 258/311/258 247/290/247
f 237/292/237 225/312/225 248/313/248
f 243/303/243 255/314/255 244/308/244
f 241/286/241 251/310/251 252/315/252
f 310/316/310 247/290/247 258/311/258
f 237/292/237 249/317/249 238/293/238
f 244/308/244 256/318/256 245/295/245
f 241/286/241 253/319/253 242/297/242
f 238/293/238 250/309/250 239/299/239
f 246/301/246 256/318/256 257/320/257
f 243/303/243 253/319/253 254/321/254
f 252/315/252 264/322/264 253/319/253
f 249/317/249 261/323/261 250/309/250
f 256/318/256 268/324/268 257/320/257
f 254/321/254 264/322/264 265/325/265
f 250/309/250 262/326/262 251/310/251
f 257/320/257 269/327/269 258/311/258
f 248/313/248 225/328/225 259/329/259
f 254/321/254 266/330/266 255/314/255
f 252/315/252 262/326/262 263/331/263
f 310/332/310 258/311/258 269/327/269
f 249/317/249 259/329/259 260/333/260
f 255/314/255 267/334/267 256/318/256
f 263/331/263 273/335/273 274/336/274
f 310/337/310 269/327/269 280/338/280
f 259/329/259 271/339/271 260/333/260
f 266/330/266 278/340/278 267/334/267
f 263/331/263 275/341/275 264/322/264
f 261/323/261 271/339/271 272/342/272
f 267/334/267 279/343/279 268/324/268
f 265/325/265 275/341/275 276/344/276
f 261/323/261 273/335/273 262/326/262
f 268/324/268 280/338/280 269/327/269
f 259/329/259 225/345/225 270/346/270
f 265/325/265 277/347/277 266/330/266
f 276/344/276 286/348/286 287/349/287
f 272/342/272 284/350/284 273/335/273
f 279/343/279 291/351/291 280/338/280
f 270/346/270 225/352/225 281/353/281
f 276/344/276 288/354/288 277/347/277
f 274/336/274 284/350/284 285/355/285
f 310/356/310 280/338/280 291/351/291
f 270/346/270 282/357/282 271/339/271
f 278/340/278 288/354/288 289/358/289
f 274/336/274 286/348/286 275/341/275
f 271/339/271 283/359/283 272/342/272
f 278/340/278 290/360/290 279/343/279
f 285/355/285 297/361/297 286/348/286
f 283/359/283 293/362/293 294/363/294
f 289/358/289 301/364/301 290/360/290
f 287/349/287 297/361/297 298/365/298
f 283/359/283 295/366/295 284/350/284
f 290/360/290 302/367/302 291/351/291
f 281/353/281 225/368/225 292/369/292
f 287/349/287 299/370/299 288/354/288
f 284/350/284 296/371/296 285/355/285
f 310/372/310 291/351/291 302/367/302
f 282/357/282 292/369/292 293/362/293
f 288/354/288 300/373/300 289/358/289
f 298/365/298 4/14/4 299/370/299
f 296/371/296 305/4/305 2/16/2
f 310/374/310 302/367/302 309/9/309
f 293/362/293 303/10/303 1/19/1
f 299/370/299 307/21/307 300/373/300
f 296/371/296 306/1/306 297/361/297
f 294/363/294 1/19/1 304/23/304
f 301/364/301 307/21/307 308/7/308
f 297/361/297 3/3/3 298/365/298
f 294/363/294 305/4/305 295/366/295
f 301/364/301 309/9/309 302/367/302
f 292/369/292 225/375/225 303/10/303
f 306/1/306 10/22/10 11/2/11
f 305/4/305 304/23/304 7/5/7
f 308/7/308 14/24/14 15/8/15
f 3/3/3 11/2/11 12/13/12
f 305/4/305 8/6/8 9/15/9
f 303/10/303 5/12/5 6/18/6
f 4/14/4 12/13/12 13/20/13
f 2/16/2 9/15/9 10/22/10
f 304/23/304 1/19/1 6/18/6
f 307/21/307 13/20/13 14/24/14
f 5/12/5 16/35/16 17/27/17
f 12/13/12 23/36/23 24/28/24
f 9/15/9 20/37/20 21/29/21
f 6/18/6 17/27/17 18/30/18
f 13/20/13 24/28/24 25/31/25
f 10/22/10 21/29/21 22/32/22
f 7/5/7 18/30/18 19/33/19
f 14/24/14 25/31/25 26/26/26
f 11/2/11 22/32/22 23/36/23
f 9/15/9 8/6/8 19/33/19
f 19/33/19 18/30/18 29/38/29
f 25/31/25 36/49/36 37/40/37
f 22/32/22 33/50/33 34/43/34
f 20/37/20 19/33/19 30/39/30
f 16/35/16 27/42/27 28/46/28
f 23/36/23 34/43/34 35/47/35
f 21/29/21 20/37/20 31/44/31
f 17/27/17 28/46/28 29/38/29
f 24/28/24 35/47/35 36/49/36
f 21/29/21 32/48/32 33/50/33
f 28/46/28 39/62/39 40/51/40
f 35/47/35 46/63/46 47/52/47
f 33/50/33 32/48/32 43/53/43
f 29/38/29 40/51/40 41/55/41
f 37/40/37 36/49/36 47/52/47
f 33/50/33 44/54/44 45/59/45
f 30/39/30 41/55/41 42/60/42
f 27/42/27 38/58/38 39/62/39
f 34/43/34 45/59/45 46/63/46
f 31/44/31 42/60/42 43/53/43
f 41/55/41 52/74/52 53/64/53
f 38/58/38 49/76/49 50/67/50
f 46/63/46 45/59/45 56/68/56
f 42/60/42 53/64/53 54/70/54
f 39/62/39 50/67/50 51/71/51
f 46/63/46 57/69/57 58/72/58
f 44/54/44 43/53/43 54/70/54
f 40/51/40 51/71/51 52/74/52
f 47/52/47 58/72/58 59/66/59
f 44/54/44 55/73/55 56/68/56
f 51/71/51 62/87/62 63/77/63
f 58/72/58 69/88/69 70/78/70
f 55/73/55 66/89/66 67/81/67
f 52/74/52 63/77/63 64/82/64
f 49/76/49 60/80/60 61/84/61
f 57/69/57 56/68/56 67/81/67
f 53/64/53 64/82/64 65/86/65
f 50/67/50 61/84/61 62/87/62
f 57/69/57 68/85/68 69/88/69
f 54/70/54 65/86/65 66/89/66
f 64/82/64 75/100/75 76/90/76
f 61/84/61 72/102/72 73/91/73
f 69/88/69 68/85/68 79/92/79
f 65/86/65 76/90/76 77/94/77
f 62/87/62 73/91/73 74/95/74
f 69/88/69 80/93/80 81/96/81
f 66/89/66 77/94/77 78/99/78
f 64/82/64 63/77/63 74/95/74
f 60/80/60 71/98/71 72/102/72
f 68/85/68 67/81/67 78/99/78
f 74/95/74 85/113/85 86/103/86
f 72/102/72 71/98/71 82/106/82
f 78/99/78 89/115/89 90/108/90
f 75/100/75 86/103/86 87/109/87
f 72/102/72 83/107/83 84/110/84
f 80/93/80 79/92/79 90/108/90
f 76/90/76 87/109/87 88/112/88
f 73/91/73 84/110/84 85/113/85
f 80/93/80 91/111/91 92/105/92
f 77/94/77 88/112/88 89/115/89
f 87/109/87 98/127/98 99/116/99
f 84/110/84 95/128/95 96/117/96
f 92/105/92 91/111/91 102/118/102
f 88/112/88 99/116/99 100/122/100
f 85/113/85 96/117/96 97/123/97
f 82/106/82 93/121/93 94/125/94
f 89/115/89 100/122/100 101/126/101
f 86/103/86 97/123/97 98/127/98
f 83/107/83 94/125/94 95/128/95
f 91/111/91 90/108/90 101/126/101
f 97/123/97 108/139/108 109/129/109
f 95/128/95 94/125/94 105/130/105
f 101/126/101 112/141/112 113/132/113
f 98/127/98 109/129/109 110/133/110
f 95/128/95 106/131/106 107/134/107
f 103/119/103 102/118/102 113/132/113
f 99/116/99 110/133/110 111/138/111
f 96/117/96 107/134/107 108/139/108
f 93/121/93 104/137/104 105/130/105
f 100/122/100 111/138/111 112/141/112
f 110/133/110 121/153/121 122/142/122
f 108/139/108 107/134/107 118/143/118
f 105/130/105 104/137/104 115/147/115
f 111/138/111 122/142/122 123/149/123
f 108/139/108 119/144/119 120/150/120
f 106/131/106 105/130/105 116/148/116
f 112/141/112 123/149/123 124/152/124
f 110/133/110 109/129/109 120/150/120
f 106/131/106 117/151/117 118/143/118
f 113/132/113 124/152/124 125/146/125
f 121/153/121 120/150/120 131/155/131
f 117/151/117 128/167/128 129/157/129
f 125/146/125 124/152/124 135/158/135
f 121/153/121 132/156/132 133/162/133
f 119/144/119 118/143/118 129/157/129
f 115/147/115 126/161/126 127/165/127
f 123/149/123 122/142/122 133/162/133
f 119/144/119 130/163/130 131/155/131
f 116/148/116 127/165/127 128/167/128
f 123/149/123 134/166/134 135/158/135
f 133/162/133 144/177/144 145/168/145
f 130/163/130 141/178/141 142/169/142
f 127/165/127 138/180/138 139/170/139
f 134/166/134 145/168/145 146/171/146
f 131/155/131 142/169/142 143/172/143
f 128/167/128 139/170/139 140/173/140
f 135/158/135 146/171/146 147/174/147
f 132/156/132 143/172/143 144/177/144
f 130/163/130 129/157/129 140/173/140
f 127/165/127 126/161/126 137/176/137
f 143/172/143 154/192/154 155/183/155
f 140/173/140 151/193/151 152/184/152
f 137/176/137 148/182/148 149/187/149
f 144/177/144 155/183/155 156/188/156
f 141/178/141 152/184/152 153/189/153
f 138/180/138 149/187/149 150/190/150
f 145/168/145 156/188/156 157/191/157
f 143/172/143 142/169/142 153/189/153
f 139/170/139 150/190/150 151/193/151
f 147/174/147 146/171/146 157/191/157
f 156/188/156 167/205/167 168/194/168
f 154/192/154 153/189/153 164/195/164
f 150/190/150 161/206/161 162/197/162
f 157/191/157 168/194/168 169/198/169
f 154/192/154 165/196/165 166/201/166
f 151/193/151 162/197/162 163/202/163
f 148/182/148 159/200/159 160/204/160
f 155/183/155 166/201/166 167/205/167
f 152/184/152 163/202/163 164/195/164
f 149/187/149 160/204/160 161/206/161
f 159/200/159 170/216/170 171/207/171
f 166/201/166 177/217/177 178/208/178
f 163/202/163 174/218/174 175/209/175
f 160/204/160 171/207/171 172/210/172
f 167/205/167 178/208/178 179/211/179
f 164/195/164 175/209/175 176/212/176
f 162/197/162 161/206/161 172/210/172
f 168/194/168 179/211/179 180/214/180
f 165/196/165 176/212/176 177/217/177
f 162/197/162 173/213/173 174/218/174
f 179/211/179 190/230/190 191/220/191
f 176/212/176 187/231/187 188/223/188
f 173/213/173 184/232/184 185/224/185
f 171/207/171 170/216/170 181/222/181
f 177/217/177 188/223/188 189/227/189
f 174/218/174 185/224/185 186/228/186
f 171/207/171 182/226/182 183/229/183
f 178/208/178 189/227/189 190/230/190
f 176/212/176 175/209/175 186/228/186
f 172/210/172 183/229/183 184/232/184
f 183/229/183 182/226/182 193/233/193
f 189/227/189 200/245/200 201/235/201
f 187/231/187 186/228/186 197/236/197
f 183/229/183 194/234/194 195/238/195
f 190/230/190 201/235/201 202/239/202
f 187/231/187 198/237/198 199/242/199
f 185/224/185 184/232/184 195/238/195
f 181/222/181 192/241/192 193/233/193
f 188/223/188 199/242/199 200/245/200
f 185/224/185 196/243/196 197/236/197
f 192/241/192 203/257/203 204/248/204
f 200/245/200 199/242/199 210/249/210
f 196/243/196 207/258/207 208/251/208
f 193/233/193 204/248/204 205/252/205
f 200/245/200 211/250/211 212/253/212
f 198/237/198 197/236/197 208/251/208
f 194/234/194 205/252/205 206/255/206
f 201/235/201 212/253/212 213/247/213
f 198/237/198 209/254/209 210/249/210
f 196/243/196 195/238/195 206/255/206
f 205/252/205 216/269/216 217/259/217
f 212/253/212 223/270/223 224/260/224
f 209/254/209 220/271/220 221/263/221
f 207/258/207 206/255/206 217/259/217
f 204/248/204 203/257/203 214/262/214
f 210/249/210 221/263/221 222/267/222
f 207/258/207 218/264/218 219/268/219
f 205/252/205 204/248/204 215/266/215
f 211/250/211 222/267/222 223/270/223
f 209/254/209 208/251/208 219/268/219
f 215/266/215 227/284/227 228/272/228
f 223/270/223 222/267/222 234/273/234
f 220/271/220 219/268/219 231/275/231
f 216/269/216 228/272/228 229/277/229
f 223/270/223 235/274/235 236/278/236
f 220/271/220 232/276/232 233/281/233
f 218/264/218 217/259/217 229/277/229
f 214/262/214 226/280/226 227/284/227
f 221/263/221 233/281/233 234/273/234
f 218/264/218 230/282/230 231/275/231
f 229/285/229 240/305/240 241/286/241
f 227/291/227 226/306/226 237/292/237
f 233/294/233 244/308/244 245/295/245
f 230/287/230 241/286/241 242/297/242
f 227/291/227 238/293/238 239/299/239
f 234/296/234 245/295/245 246/301/246
f 231/298/231 242/297/242 243/303/243
f 228/300/228 239/299/239 240/305/240
f 236/289/236 235/302/235 246/301/246
f 232/304/232 243/303/243 244/308/244
f 240/305/240 239/299/239 250/309/250
f 246/301/246 257/320/257 258/311/258
f 243/303/243 254/321/254 255/314/255
f 241/286/241 240/305/240 251/310/251
f 237/292/237 248/313/248 249/317/249
f 244/308/244 255/314/255 256/318/256
f 241/286/241 252/315/252 253/319/253
f 238/293/238 249/317/249 250/309/250
f 246/301/246 245/295/245 256/318/256
f 243/303/243 242/297/242 253/319/253
f 252/315/252 263/331/263 264/322/264
f 249/317/249 260/333/260 261/323/261
f 256/318/256 267/334/267 268/324/268
f 254/321/254 253/319/253 264/322/264
f 250/309/250 261/323/261 262/326/262
f 257/320/257 268/324/268 269/327/269
f 254/321/254 265/325/265 266/330/266
f 252/315/252 251/310/251 262/326/262
f 249/317/249 248/313/248 259/329/259
f 255/314/255 266/330/266 267/334/267
f 263/331/263 262/326/262 273/335/273
f 259/329/259 270/346/270 271/339/271
f 266/330/266 277/347/277 278/340/278
f 263/331/263 274/336/274 275/341/275
f 261/323/261 260/333/260 271/339/271
f 267/334/267 278/340/278 279/343/279
f 265/325/265 264/322/264 275/341/275
f 261/323/261 272/342/272 273/335/273
f 268/324/268 279/343/279 280/338/280
f 265/325/265 276/344/276 277/347/277
f 276/344/276 275/341/275 286/348/286
f 272/342/272 283/359/283 284/350/284
f 279/343/279 290/360/290 291/351/291
f 276/344/276 287/349/287 288/354/288
f 274/336/274 273/335/273 284/350/284
f 270/346/270 281/353/281 282/357/282
f 278/340/278 277/347/277 288/354/288
f 274/336/274 285/355/285 286/348/286
f 271/339/271 282/357/282 283/359/283
f 278/340/278 289/358/289 290/360/290
f 285/355/285 296/371/296 297/361/297
f 283/359/283 282/357/282 293/362/293
f 289/358/289 300/373/300 301/364/301
f 287/349/287 286/348/286 297/361/297
f 283/359/283 294/363/294 295/366/295
f 290/360/290 301/364/301 302/367/302
f 287/349/287 298/365/298 299/370/299
f 284/350/284 295/366/295 296/371/296
f 282/357/282 281/353/281 292/369/292
f 288/354/288 299/370/299 300/373/300
f 298/365/298 3/3/3 4/14/4
f 296/371/296 295/366/295 305/4/305
f 293/362/293 292/369/292 303/10/303
f 299/370/299 4/14/4 307/21/307
f 296/371/296 2/16/2 306/1/306
f 294/363/294 293/362/293 1/19/1
f 301/364/301 300/373/300 307/21/307
f 297/361/297 306/1/306 3/3/3
f 294/363/294 304/23/304 305/4/305
f 301/364/301 308/7/308 309/9/309
