# Blender 4.2.0
# www.blender.org
mtllib Weapon.mtl
o 球
v -0.100000 0.298264 0.100000
v -0.141421 0.156843 0.141421
v -0.100000 0.015422 0.100000
v -0.141421 0.298264 0.000000
v -0.200000 0.156843 0.000000
v -0.141421 0.015422 0.000000
v -0.100000 0.298264 -0.100000
v -0.141421 0.156843 -0.141421
v -0.100000 0.015422 -0.100000
v 0.000000 0.298264 -0.141421
v 0.000000 0.156843 -0.200000
v 0.000000 0.015422 -0.141421
v 0.100000 0.298264 -0.100000
v 0.141421 0.156843 -0.141421
v 0.100000 0.015422 -0.100000
v 0.000000 -0.043157 0.000000
v 0.141421 0.298264 0.000000
v 0.200000 0.156843 0.000000
v 0.141421 0.015422 0.000000
v 0.100000 0.298264 0.100000
v 0.141421 0.156843 0.141421
v 0.100000 0.015422 0.100000
v 0.000000 0.356843 0.000000
v 0.000000 0.298264 0.141421
v 0.000000 0.156843 0.200000
v 0.000000 0.015422 0.141421
v 0.005001 6.727682 0.360130
v -0.077283 1.898105 0.360130
v -0.005942 7.016521 -0.360130
v -0.077283 1.898105 -0.360130
v 0.003255 6.737184 0.360130
v 0.077283 1.898105 0.360130
v 0.003033 7.016521 -0.360130
v 0.077283 1.898105 -0.360130
v 0.152790 1.798718 -1.000000
v 0.152790 2.036261 -1.000000
v 0.152790 1.798718 1.000000
v 0.152790 2.036261 1.000000
v -0.152790 1.798718 -1.000000
v -0.152790 2.036261 -1.000000
v -0.152790 1.798718 1.000000
v -0.152790 2.036261 1.000000
v 0.000000 0.162349 0.074909
v 0.000000 2.162349 0.074909
v -0.014614 0.162349 0.073470
v -0.014614 2.162349 0.073470
v -0.028666 0.162349 0.069207
v -0.028666 2.162349 0.069207
v -0.041617 0.162349 0.062285
v -0.041617 2.162349 0.062285
v -0.052969 0.162349 0.052969
v -0.052969 2.162349 0.052969
v -0.062285 0.162349 0.041617
v -0.062285 2.162349 0.041617
v -0.069207 0.162349 0.028666
v -0.069207 2.162349 0.028666
v -0.073470 0.162349 0.014614
v -0.073470 2.162349 0.014614
v -0.074909 0.162349 0.000000
v -0.074909 2.162349 0.000000
v -0.073470 0.162349 -0.014614
v -0.073470 2.162349 -0.014614
v -0.069207 0.162349 -0.028666
v -0.069207 2.162349 -0.028666
v -0.062285 0.162349 -0.041617
v -0.062285 2.162349 -0.041617
v -0.052969 0.162349 -0.052969
v -0.052969 2.162349 -0.052969
v -0.041617 0.162349 -0.062285
v -0.041617 2.162349 -0.062285
v -0.028666 0.162349 -0.069207
v -0.028666 2.162349 -0.069207
v -0.014614 0.162349 -0.073470
v -0.014614 2.162349 -0.073470
v 0.000000 0.162349 -0.074909
v 0.000000 2.162349 -0.074909
v 0.014614 0.162349 -0.073470
v 0.014614 2.162349 -0.073470
v 0.028666 0.162349 -0.069207
v 0.028666 2.162349 -0.069207
v 0.041617 0.162349 -0.062285
v 0.041617 2.162349 -0.062285
v 0.052969 0.162349 -0.052969
v 0.052969 2.162349 -0.052969
v 0.062285 0.162349 -0.041617
v 0.062285 2.162349 -0.041617
v 0.069207 0.162349 -0.028666
v 0.069207 2.162349 -0.028666
v 0.073470 0.162349 -0.014614
v 0.073470 2.162349 -0.014614
v 0.074909 0.162349 0.000000
v 0.074909 2.162349 0.000000
v 0.073470 0.162349 0.014614
v 0.073470 2.162349 0.014614
v 0.069207 0.162349 0.028666
v 0.069207 2.162349 0.028666
v 0.062285 0.162349 0.041617
v 0.062285 2.162349 0.041617
v 0.052969 0.162349 0.052969
v 0.052969 2.162349 0.052969
v 0.041617 0.162349 0.062285
v 0.041617 2.162349 0.062285
v 0.028666 0.162349 0.069207
v 0.028666 2.162349 0.069207
v 0.014614 0.162349 0.073470
v 0.014614 2.162349 0.073470
vn -0.0000 -1.0000 -0.0000
vn -0.0000 -0.6630 0.7486
vn -0.5294 -0.6630 0.5294
vn -0.0000 -0.0000 1.0000
vn -0.5294 0.6630 0.5294
vn -0.7071 -0.0000 0.7071
vn -0.0000 0.6630 0.7486
vn -0.0000 1.0000 -0.0000
vn -0.7486 -0.6630 -0.0000
vn -1.0000 -0.0000 -0.0000
vn -0.7486 0.6630 -0.0000
vn -0.5294 -0.6630 -0.5294
vn -0.7071 -0.0000 -0.7071
vn -0.5294 0.6630 -0.5294
vn -0.0000 -0.6630 -0.7486
vn -0.0000 -0.0000 -1.0000
vn -0.0000 0.6630 -0.7486
vn 0.5294 -0.6630 -0.5294
vn 0.7071 -0.0000 -0.7071
vn 0.5294 0.6630 -0.5294
vn 0.7486 0.6630 -0.0000
vn 0.7486 -0.6630 -0.0000
vn 1.0000 -0.0000 -0.0000
vn 0.5294 -0.6630 0.5294
vn 0.5294 0.6630 0.5294
vn 0.7071 -0.0000 0.7071
vn -0.0000 0.9281 0.3722
vn 0.9999 0.0153 -0.0000
vn -0.9999 0.0170 -0.0000
vn -0.0000 0.6857 0.7279
vn -0.1420 -0.6857 0.7139
vn -0.0000 -0.6857 0.7279
vn -0.1420 0.6857 0.7139
vn -0.2785 -0.6857 0.6725
vn -0.2786 0.6857 0.6725
vn -0.4044 -0.6857 0.6052
vn -0.4044 0.6857 0.6052
vn -0.5147 -0.6857 0.5147
vn -0.5147 0.6857 0.5147
vn -0.6052 -0.6857 0.4044
vn -0.6053 0.6857 0.4044
vn -0.6725 -0.6857 0.2785
vn -0.6725 0.6857 0.2786
vn -0.7139 -0.6857 0.1420
vn -0.7139 0.6857 0.1420
vn -0.7279 -0.6857 -0.0000
vn -0.7279 0.6857 -0.0000
vn -0.7139 -0.6857 -0.1420
vn -0.7139 0.6857 -0.1420
vn -0.6725 -0.6857 -0.2785
vn -0.6725 0.6857 -0.2786
vn -0.6052 -0.6857 -0.4044
vn -0.6053 0.6857 -0.4044
vn -0.5147 -0.6857 -0.5147
vn -0.5147 0.6857 -0.5147
vn -0.4044 -0.6857 -0.6052
vn -0.4044 0.6857 -0.6052
vn -0.2785 -0.6857 -0.6725
vn -0.2786 0.6857 -0.6725
vn -0.1420 -0.6857 -0.7139
vn -0.1420 0.6857 -0.7139
vn -0.0000 -0.6857 -0.7279
vn -0.0000 0.6857 -0.7279
vn 0.1420 -0.6857 -0.7139
vn 0.1420 0.6857 -0.7139
vn 0.2785 -0.6857 -0.6725
vn 0.2786 0.6857 -0.6725
vn 0.4044 -0.6857 -0.6052
vn 0.4044 0.6857 -0.6052
vn 0.5147 -0.6857 -0.5147
vn 0.5147 0.6857 -0.5147
vn 0.6052 -0.6857 -0.4044
vn 0.6053 0.6857 -0.4044
vn 0.6725 -0.6857 -0.2785
vn 0.6725 0.6857 -0.2786
vn 0.7139 -0.6857 -0.1420
vn 0.7139 0.6857 -0.1420
vn 0.7279 -0.6857 -0.0000
vn 0.7279 0.6857 -0.0000
vn 0.7139 -0.6857 0.1420
vn 0.7139 0.6857 0.1420
vn 0.6725 -0.6857 0.2785
vn 0.6725 0.6857 0.2786
vn 0.6052 -0.6857 0.4044
vn 0.6053 0.6857 0.4044
vn 0.5147 -0.6857 0.5147
vn 0.5147 0.6857 0.5147
vn 0.4044 -0.6857 0.6052
vn 0.4044 0.6857 0.6052
vn 0.2785 -0.6857 0.6725
vn 0.2786 0.6857 0.6725
vn 0.1420 -0.6857 0.7139
vn 0.1420 0.6857 0.7139
vn -0.9811 -0.1803 -0.0696
vn 0.9999 0.0145 0.0053
vn -0.9997 0.0139 0.0208
vt 0.687500 0.000000
vt 0.750000 0.250000
vt 0.625000 0.250000
vt 0.750000 0.500000
vt 0.625000 0.750000
vt 0.625000 0.500000
vt 0.750000 0.750000
vt 0.687500 1.000000
vt 0.562500 0.000000
vt 0.500000 0.250000
vt 0.500000 0.500000
vt 0.562500 1.000000
vt 0.500000 0.750000
vt 0.437500 0.000000
vt 0.375000 0.250000
vt 0.375000 0.500000
vt 0.437500 1.000000
vt 0.375000 0.750000
vt 0.312500 0.000000
vt 0.250000 0.250000
vt 0.250000 0.500000
vt 0.312500 1.000000
vt 0.250000 0.750000
vt 0.187500 0.000000
vt 0.125000 0.250000
vt 0.125000 0.500000
vt 0.187500 1.000000
vt 0.125000 0.750000
vt 0.062500 1.000000
vt 0.000000 0.750000
vt 0.062500 0.000000
vt 0.000000 0.250000
vt 0.000000 0.500000
vt 1.000000 0.500000
vt 0.875000 0.250000
vt 1.000000 0.250000
vt 1.000000 0.750000
vt 0.937500 1.000000
vt 0.875000 0.750000
vt 0.937500 0.000000
vt 0.875000 0.500000
vt 0.812500 1.000000
vt 0.812500 0.000000
vt 0.000000 0.000000
vt 0.625000 0.000000
vt 0.375000 0.000000
vt 0.375000 0.750000
vt 0.625000 0.750000
vt 0.375000 1.000000
vt 0.125000 0.750000
vt 1.000000 1.000000
vt 0.968750 0.500000
vt 0.968750 1.000000
vt 0.937500 0.500000
vt 0.906250 0.500000
vt 0.906250 1.000000
vt 0.875000 1.000000
vt 0.843750 0.500000
vt 0.843750 1.000000
vt 0.812500 0.500000
vt 0.781250 0.500000
vt 0.781250 1.000000
vt 0.750000 1.000000
vt 0.718750 0.500000
vt 0.718750 1.000000
vt 0.687500 0.500000
vt 0.656250 0.500000
vt 0.656250 1.000000
vt 0.625000 1.000000
vt 0.593750 0.500000
vt 0.593750 1.000000
vt 0.562500 0.500000
vt 0.531250 0.500000
vt 0.531250 1.000000
vt 0.500000 1.000000
vt 0.468750 0.500000
vt 0.468750 1.000000
vt 0.437500 0.500000
vt 0.406250 0.500000
vt 0.406250 1.000000
vt 0.343750 0.500000
vt 0.343750 1.000000
vt 0.312500 0.500000
vt 0.281250 0.500000
vt 0.281250 1.000000
vt 0.250000 1.000000
vt 0.218750 0.500000
vt 0.218750 1.000000
vt 0.187500 0.500000
vt 0.156250 0.500000
vt 0.156250 1.000000
vt 0.125000 1.000000
vt 0.093750 0.500000
vt 0.093750 1.000000
vt 0.062500 0.500000
vt 0.158156 0.028269
vt 0.471731 0.158156
vt 0.341844 0.471731
vt 0.062500 1.000000
vt 0.031250 0.500000
vt 0.031250 1.000000
vt 0.796822 0.014612
vt 0.514612 0.203178
vt 0.703178 0.485388
vt 0.875000 0.750000
vt 0.296822 0.485388
vt 0.250000 0.490000
vt 0.203178 0.485388
vt 0.158156 0.471731
vt 0.116663 0.449553
vt 0.080294 0.419706
vt 0.050447 0.383337
vt 0.028269 0.341844
vt 0.014612 0.296822
vt 0.010000 0.250000
vt 0.014612 0.203178
vt 0.028269 0.158156
vt 0.050447 0.116663
vt 0.080294 0.080294
vt 0.116663 0.050447
vt 0.203178 0.014612
vt 0.250000 0.010000
vt 0.296822 0.014612
vt 0.341844 0.028269
vt 0.383337 0.050447
vt 0.419706 0.080294
vt 0.449553 0.116663
vt 0.485388 0.203178
vt 0.490000 0.250000
vt 0.485388 0.296822
vt 0.471731 0.341844
vt 0.449553 0.383337
vt 0.419706 0.419706
vt 0.383337 0.449553
vt 0.000000 1.000000
vt 0.750000 0.490000
vt 0.796822 0.485388
vt 0.841844 0.471731
vt 0.883337 0.449553
vt 0.919706 0.419706
vt 0.949553 0.383337
vt 0.971731 0.341844
vt 0.985388 0.296822
vt 0.990000 0.250000
vt 0.985388 0.203178
vt 0.971731 0.158156
vt 0.949553 0.116663
vt 0.919706 0.080294
vt 0.883337 0.050447
vt 0.841844 0.028269
vt 0.750000 0.010000
vt 0.703178 0.014612
vt 0.658156 0.028269
vt 0.616663 0.050447
vt 0.580294 0.080294
vt 0.550447 0.116663
vt 0.528269 0.158156
vt 0.510000 0.250000
vt 0.514612 0.296822
vt 0.528269 0.341844
vt 0.550447 0.383337
vt 0.580294 0.419706
vt 0.616663 0.449553
vt 0.658156 0.471731
s 1
usemtl Material
f 16/1/1 26/2/2 3/3/3
f 25/4/4 1/5/5 2/6/6
f 25/4/4 3/3/3 26/2/2
f 24/7/7 23/8/8 1/5/5
f 16/9/1 3/3/3 6/10/9
f 1/5/5 5/11/10 2/6/6
f 2/6/6 6/10/9 3/3/3
f 1/5/5 23/12/8 4/13/11
f 16/14/1 6/10/9 9/15/12
f 4/13/11 8/16/13 5/11/10
f 6/10/9 8/16/13 9/15/12
f 4/13/11 23/17/8 7/18/14
f 16/19/1 9/15/12 12/20/15
f 7/18/14 11/21/16 8/16/13
f 8/16/13 12/20/15 9/15/12
f 7/18/14 23/22/8 10/23/17
f 16/24/1 12/20/15 15/25/18
f 10/23/17 14/26/19 11/21/16
f 11/21/16 15/25/18 12/20/15
f 10/23/17 23/27/8 13/28/20
f 13/28/20 23/29/8 17/30/21
f 16/31/1 15/25/18 19/32/22
f 13/28/20 18/33/23 14/26/19
f 14/26/19 19/32/22 15/25/18
f 18/34/23 22/35/24 19/36/22
f 17/37/21 23/38/8 20/39/25
f 16/40/1 19/36/22 22/35/24
f 17/37/21 21/41/26 18/34/23
f 21/41/26 26/2/2 22/35/24
f 20/39/25 23/42/8 24/7/7
f 16/43/1 22/35/24 26/2/2
f 20/39/25 25/4/4 21/41/26
s 0
f 27/44/27 33/44/27 29/44/27
f 30/44/16 33/44/16 34/44/16
f 34/44/28 31/44/28 32/44/28
f 28/44/1 34/44/1 32/44/1
f 27/44/29 30/44/29 28/44/29
f 32/44/4 27/44/4 28/44/4
f 36/45/23 37/15/23 35/46/23
f 38/3/4 41/16/4 37/15/4
f 42/6/10 39/47/10 41/16/10
f 40/48/16 35/49/16 39/47/16
f 41/16/1 35/50/1 37/26/1
f 38/41/8 40/48/8 42/6/8
s 1
f 44/51/30 45/52/31 43/34/32
f 46/53/33 47/54/34 45/52/31
f 48/38/35 49/55/36 47/54/34
f 50/56/37 51/41/38 49/55/36
f 52/57/39 53/58/40 51/41/38
f 54/59/41 55/60/42 53/58/40
f 56/42/43 57/61/44 55/60/42
f 58/62/45 59/4/46 57/61/44
f 60/63/47 61/64/48 59/4/46
f 62/65/49 63/66/50 61/64/48
f 64/8/51 65/67/52 63/66/50
f 66/68/53 67/6/54 65/67/52
f 68/69/55 69/70/56 67/6/54
f 70/71/57 71/72/58 69/70/56
f 72/12/59 73/73/60 71/72/58
f 74/74/61 75/11/62 73/73/60
f 76/75/63 77/76/64 75/11/62
f 78/77/65 79/78/66 77/76/64
f 80/17/67 81/79/68 79/78/66
f 82/80/69 83/16/70 81/79/68
f 84/49/71 85/81/72 83/16/70
f 86/82/73 87/83/74 85/81/72
f 88/22/75 89/84/76 87/83/74
f 90/85/77 91/21/78 89/84/76
f 92/86/79 93/87/80 91/21/78
f 94/88/81 95/89/82 93/87/80
f 96/27/83 97/90/84 95/89/82
f 98/91/85 99/26/86 97/90/84
f 100/92/87 101/93/88 99/26/86
f 102/94/89 103/95/90 101/93/88
f 80/96/67 64/97/51 48/98/35
f 104/99/91 105/100/92 103/95/90
f 106/101/93 43/33/32 105/100/92
f 73/102/60 89/103/76 105/104/92
f 25/4/4 24/7/7 1/5/5
f 25/4/4 2/6/6 3/3/3
f 1/5/5 4/13/11 5/11/10
f 2/6/6 5/11/10 6/10/9
f 4/13/11 7/18/14 8/16/13
f 6/10/9 5/11/10 8/16/13
f 7/18/14 10/23/17 11/21/16
f 8/16/13 11/21/16 12/20/15
f 10/23/17 13/28/20 14/26/19
f 11/21/16 14/26/19 15/25/18
f 13/28/20 17/30/21 18/33/23
f 14/26/19 18/33/23 19/32/22
f 18/34/23 21/41/26 22/35/24
f 17/37/21 20/39/25 21/41/26
f 21/41/26 25/4/4 26/2/2
f 20/39/25 24/7/7 25/4/4
s 0
f 27/44/94 31/44/94 33/44/94
f 30/44/16 29/44/16 33/44/16
f 34/44/95 33/44/95 31/44/95
f 28/44/1 30/44/1 34/44/1
f 27/44/96 29/44/96 30/44/96
f 32/44/16 31/44/16 27/44/16
f 36/45/23 38/3/23 37/15/23
f 38/3/4 42/6/4 41/16/4
f 42/6/10 40/48/10 39/47/10
f 40/48/16 36/69/16 35/49/16
f 41/16/1 39/47/1 35/50/1
f 38/41/8 36/105/8 40/48/8
s 1
f 44/51/30 46/53/33 45/52/31
f 46/53/33 48/38/35 47/54/34
f 48/38/35 50/56/37 49/55/36
f 50/56/37 52/57/39 51/41/38
f 52/57/39 54/59/41 53/58/40
f 54/59/41 56/42/43 55/60/42
f 56/42/43 58/62/45 57/61/44
f 58/62/45 60/63/47 59/4/46
f 60/63/47 62/65/49 61/64/48
f 62/65/49 64/8/51 63/66/50
f 64/8/51 66/68/53 65/67/52
f 66/68/53 68/69/55 67/6/54
f 68/69/55 70/71/57 69/70/56
f 70/71/57 72/12/59 71/72/58
f 72/12/59 74/74/61 73/73/60
f 74/74/61 76/75/63 75/11/62
f 76/75/63 78/77/65 77/76/64
f 78/77/65 80/17/67 79/78/66
f 80/17/67 82/80/69 81/79/68
f 82/80/69 84/49/71 83/16/70
f 84/49/71 86/82/73 85/81/72
f 86/82/73 88/22/75 87/83/74
f 88/22/75 90/85/77 89/84/76
f 90/85/77 92/86/79 91/21/78
f 92/86/79 94/88/81 93/87/80
f 94/88/81 96/27/83 95/89/82
f 96/27/83 98/91/85 97/90/84
f 98/91/85 100/92/87 99/26/86
f 100/92/87 102/94/89 101/93/88
f 102/94/89 104/99/91 103/95/90
f 48/98/35 46/106/33 44/107/30
f 44/107/30 106/108/93 104/109/91
f 104/109/91 102/110/89 100/111/87
f 100/111/87 98/112/85 96/113/83
f 96/113/83 94/114/81 92/115/79
f 92/115/79 90/116/77 88/117/75
f 88/117/75 86/118/73 84/119/71
f 84/119/71 82/120/69 80/96/67
f 80/96/67 78/121/65 76/122/63
f 76/122/63 74/123/61 72/124/59
f 72/124/59 70/125/57 68/126/55
f 68/126/55 66/127/53 64/97/51
f 64/97/51 62/128/49 60/129/47
f 60/129/47 58/130/45 56/131/43
f 56/131/43 54/132/41 52/133/39
f 52/133/39 50/134/37 48/98/35
f 48/98/35 44/107/30 104/109/91
f 104/109/91 100/111/87 96/113/83
f 96/113/83 92/115/79 88/117/75
f 88/117/75 84/119/71 80/96/67
f 80/96/67 76/122/63 72/124/59
f 72/124/59 68/126/55 64/97/51
f 64/97/51 60/129/47 56/131/43
f 56/131/43 52/133/39 48/98/35
f 48/98/35 104/109/91 96/113/83
f 96/113/83 88/117/75 80/96/67
f 80/96/67 72/124/59 64/97/51
f 64/97/51 56/131/43 48/98/35
f 48/98/35 96/113/83 80/96/67
f 104/99/91 106/101/93 105/100/92
f 106/101/93 44/135/30 43/33/32
f 105/104/92 43/136/32 45/137/31
f 45/137/31 47/138/34 49/139/36
f 49/139/36 51/140/38 53/141/40
f 53/141/40 55/142/42 57/143/44
f 57/143/44 59/144/46 61/145/48
f 61/145/48 63/146/50 65/147/52
f 65/147/52 67/148/54 69/149/56
f 69/149/56 71/150/58 73/102/60
f 73/102/60 75/151/62 77/152/64
f 77/152/64 79/153/66 81/154/68
f 81/154/68 83/155/70 85/156/72
f 85/156/72 87/157/74 89/103/76
f 89/103/76 91/158/78 93/159/80
f 93/159/80 95/160/82 97/161/84
f 97/161/84 99/162/86 101/163/88
f 101/163/88 103/164/90 105/104/92
f 105/104/92 45/137/31 49/139/36
f 49/139/36 53/141/40 57/143/44
f 57/143/44 61/145/48 65/147/52
f 65/147/52 69/149/56 73/102/60
f 73/102/60 77/152/64 81/154/68
f 81/154/68 85/156/72 89/103/76
f 89/103/76 93/159/80 97/161/84
f 97/161/84 101/163/88 105/104/92
f 105/104/92 49/139/36 57/143/44
f 57/143/44 65/147/52 73/102/60
f 73/102/60 81/154/68 89/103/76
f 89/103/76 97/161/84 105/104/92
f 105/104/92 57/143/44 73/102/60
