# Blender 4.1.1
# www.blender.org
mtllib Player.mtl
o 立方体.002
v 0.532050 0.982997 -0.127778
v 0.382050 1.061564 0.000000
v 0.532050 1.272365 -0.129616
v 0.532050 1.140131 0.127778
v 0.682050 1.061564 0.000000
v 0.532050 0.850762 0.129616
v 0.487718 1.429454 0.000000
v -0.000000 1.902123 -0.000000
v -0.000000 1.429454 0.487718
v -0.000000 0.429455 0.000000
v -0.487718 1.429454 -0.000000
v -0.000000 1.429455 -0.487718
v -0.571751 0.012745 -0.207551
v -0.364199 0.427848 -0.207551
v -0.156648 0.012745 -0.207551
v -0.364199 0.012745 0.207551
v 0.571751 0.012745 -0.207551
v 0.364199 0.427848 -0.207551
v 0.156648 0.012745 -0.207551
v 0.364199 0.012745 0.207551
v -0.632531 0.984529 0.000000
v -0.782531 1.134529 -0.000000
v -0.632531 1.134529 -0.574463
v -0.632531 1.284529 0.000000
v -0.482531 1.134529 0.000000
v -0.632531 1.134529 0.574463
vn -0.6499 -0.0048 -0.7600
vn -0.6499 0.6760 0.3473
vn 0.6499 -0.0048 -0.7600
vn 0.6499 0.6760 0.3473
vn -0.6499 -0.6760 -0.3473
vn -0.6499 0.0048 0.7600
vn 0.6499 -0.6760 -0.3473
vn 0.6499 0.0048 0.7600
vn 0.5712 0.5894 0.5712
vn 0.6685 -0.3260 0.6685
vn -0.5712 0.5894 0.5712
vn -0.6685 -0.3260 0.6685
vn 0.5712 0.5894 -0.5712
vn 0.6685 -0.3260 -0.6685
vn -0.5712 0.5894 -0.5712
vn -0.6685 -0.3260 -0.6685
vn -0.0000 -0.0000 -1.0000
vn -0.8165 0.4082 0.4082
vn 0.8165 0.4082 0.4082
vn -0.0000 -1.0000 -0.0000
vn -0.6954 -0.6954 -0.1816
vn -0.6954 0.6954 -0.1816
vn 0.6954 -0.6954 -0.1816
vn 0.6954 0.6954 -0.1816
vn -0.6954 -0.6954 0.1816
vn -0.6954 0.6954 0.1816
vn 0.6954 -0.6954 0.1816
vn 0.6954 0.6954 0.1816
vt 0.248334 0.626666
vt 0.248334 0.750000
vt 0.125000 0.626666
vt 0.501666 0.000000
vt 0.625000 0.123334
vt 0.501666 0.123334
vt 0.248334 0.623334
vt 0.125000 0.623334
vt 0.248334 0.500000
vt 0.625000 0.126666
vt 0.501666 0.250000
vt 0.501666 0.126666
vt 0.251666 0.626666
vt 0.375000 0.626666
vt 0.251666 0.750000
vt 0.625000 0.873334
vt 0.501666 0.873334
vt 0.501666 0.750000
vt 0.251666 0.623334
vt 0.251666 0.500000
vt 0.375000 0.623334
vt 0.625000 0.376666
vt 0.501666 0.500000
vt 0.501666 0.376666
vt 0.000000 0.000000
vt 0.375000 0.000000
vt 0.625000 0.250000
vt 0.375000 0.250000
vt 0.375000 0.750000
vt 0.625000 1.000000
vt 0.375000 1.000000
vt 0.375000 0.500000
vt 0.125000 0.500000
vt 0.125000 0.750000
s 0
usemtl Material
f 1/1/1 2/2/1 3/3/1
f 2/4/2 4/5/2 3/6/2
f 1/7/3 3/8/3 5/9/3
f 4/10/4 5/11/4 3/12/4
f 1/13/5 6/14/5 2/15/5
f 4/16/6 2/17/6 6/18/6
f 1/19/7 5/20/7 6/21/7
f 4/22/8 6/23/8 5/24/8
f 7/25/9 8/25/9 9/25/9
f 10/25/10 7/25/10 9/25/10
f 9/25/11 8/25/11 11/25/11
f 9/25/12 11/25/12 10/25/12
f 7/25/13 12/25/13 8/25/13
f 12/25/14 7/25/14 10/25/14
f 12/25/15 11/25/15 8/25/15
f 10/25/16 11/25/16 12/25/16
f 13/26/17 14/27/17 15/28/17
f 16/29/18 14/30/18 13/31/18
f 15/28/19 14/27/19 16/32/19
f 15/33/20 16/29/20 13/34/20
f 17/26/17 19/28/17 18/27/17
f 20/29/19 17/31/19 18/30/19
f 19/28/18 20/32/18 18/27/18
f 19/33/20 17/34/20 20/29/20
f 21/1/21 22/2/21 23/3/21
f 22/4/22 24/5/22 23/6/22
f 21/7/23 23/8/23 25/9/23
f 24/10/24 25/11/24 23/12/24
f 21/13/25 26/14/25 22/15/25
f 24/16/26 22/17/26 26/18/26
f 21/19/27 25/20/27 26/21/27
f 24/22/28 26/23/28 25/24/28
