# Blender 4.2.0
# www.blender.org
mtllib balloon.mtl
o 球.001
v 0.000000 -1.015247 0.020000
v -0.017321 -1.015247 0.010000
v 0.000000 0.013854 0.020000
v 0.017321 -1.015247 0.010000
v 0.017321 -1.015247 -0.010000
v 0.017321 0.013854 0.010000
v 0.017321 0.013854 -0.010000
v 0.000000 0.013854 -0.020000
v -0.017321 0.013854 -0.010000
v 0.000000 -1.015247 -0.020000
v -0.017321 -1.015247 -0.010000
v -0.017321 0.013854 0.010000
v 0.000000 1.381480 0.375000
v 0.000000 1.106961 0.649519
v 0.000000 0.731961 0.750000
v 0.000000 0.356961 0.649519
v 0.000000 0.082442 0.375000
v -0.324760 1.381480 0.187500
v -0.562500 1.106961 0.324759
v -0.649519 0.731961 0.375000
v -0.562500 0.356961 0.324759
v -0.324760 0.082442 0.187500
v -0.324760 1.381480 -0.187500
v -0.562500 1.106961 -0.324760
v -0.649519 0.731961 -0.375000
v -0.562500 0.356961 -0.324760
v -0.324760 0.082442 -0.187500
v 0.000000 1.381480 -0.375000
v 0.000000 1.106961 -0.649519
v 0.000000 0.731961 -0.750000
v 0.000000 0.356961 -0.649519
v 0.000000 0.082442 -0.375000
v 0.000000 1.481961 0.000000
v 0.324760 1.381480 -0.187500
v 0.562500 1.106961 -0.324759
v 0.649519 0.731961 -0.375000
v 0.562500 0.356961 -0.324759
v 0.324760 0.082442 -0.187500
v 0.324759 1.381480 0.187500
v 0.562500 1.106961 0.324760
v 0.649519 0.731961 0.375000
v 0.562500 0.356961 0.324760
v 0.324759 0.082442 0.187500
v 0.000000 -0.018039 0.000000
vn -0.0000 -1.0000 -0.0000
vn -0.5000 -0.0000 0.8660
vn 0.5000 -0.0000 0.8660
vn 1.0000 -0.0000 -0.0000
vn -0.0000 1.0000 -0.0000
vn 0.5000 -0.0000 -0.8660
vn -0.5000 -0.0000 -0.8660
vn -1.0000 -0.0000 -0.0000
vn -0.3780 -0.6547 0.6547
vn -0.4871 0.2260 0.8436
vn -0.1478 0.9553 0.2560
vn -0.1478 -0.9553 0.2560
vn -0.4871 -0.2260 0.8436
vn -0.3780 0.6547 0.6547
vn -0.9741 0.2260 -0.0000
vn -0.2956 0.9553 -0.0000
vn -0.2956 -0.9553 -0.0000
vn -0.9741 -0.2260 -0.0000
vn -0.7559 0.6547 -0.0000
vn -0.7559 -0.6547 -0.0000
vn -0.1478 0.9553 -0.2560
vn -0.1478 -0.9553 -0.2560
vn -0.4871 -0.2260 -0.8436
vn -0.3780 0.6547 -0.6547
vn -0.3780 -0.6547 -0.6547
vn -0.4871 0.2260 -0.8436
vn 0.1478 -0.9553 -0.2560
vn 0.4871 -0.2260 -0.8436
vn 0.3780 0.6547 -0.6547
vn 0.3780 -0.6547 -0.6547
vn 0.4871 0.2260 -0.8436
vn 0.1478 0.9553 -0.2560
vn 0.2956 -0.9553 -0.0000
vn 0.9741 -0.2260 -0.0000
vn 0.7559 0.6547 -0.0000
vn 0.7559 -0.6547 -0.0000
vn 0.9741 0.2260 -0.0000
vn 0.2956 0.9553 -0.0000
vn 0.1478 -0.9553 0.2560
vn 0.4871 -0.2260 0.8436
vn 0.3780 0.6547 0.6547
vn 0.3780 -0.6547 0.6547
vn 0.4871 0.2260 0.8436
vn 0.1478 0.9553 0.2560
vt 0.919986 0.008175
vt 0.915570 0.000527
vt 0.911154 0.008175
vt 0.177166 0.999473
vt 0.147726 0.911154
vt 0.177166 0.911154
vt 0.029967 0.999473
vt 0.000527 0.911154
vt 0.029967 0.911154
vt 0.059406 0.999473
vt 0.059406 0.911154
vt 0.915570 0.021977
vt 0.911154 0.014328
vt 0.919986 0.014328
vt 0.088846 0.999473
vt 0.088846 0.911154
vt 0.118286 0.999473
vt 0.118286 0.911154
vt 0.147726 0.999473
vt 0.606909 0.303718
vt 0.455314 0.152122
vt 0.606909 0.152122
vt 0.606909 0.606909
vt 0.455314 0.455314
vt 0.606909 0.455314
vt 0.606909 0.758505
vt 0.531111 0.910100
vt 0.455314 0.758505
vt 0.531111 0.000527
vt 0.455314 0.303718
vt 0.455314 0.606909
vt 0.303718 0.606909
vt 0.303718 0.455314
vt 0.379516 0.910100
vt 0.303718 0.758505
vt 0.379516 0.000527
vt 0.303718 0.152122
vt 0.303718 0.303718
vt 0.227920 0.910100
vt 0.152122 0.758505
vt 0.227920 0.000527
vt 0.152122 0.152122
vt 0.152122 0.303718
vt 0.152122 0.606909
vt 0.152122 0.455314
vt 0.076324 0.000527
vt 0.000527 0.152122
vt 0.000527 0.303718
vt 0.000527 0.606909
vt 0.000527 0.455314
vt 0.076324 0.910100
vt 0.000527 0.758505
vt 0.834303 0.000527
vt 0.910100 0.152122
vt 0.758505 0.152122
vt 0.910100 0.303718
vt 0.758505 0.455314
vt 0.758505 0.303718
vt 0.910100 0.606909
vt 0.758505 0.758505
vt 0.758505 0.606909
vt 0.910100 0.455314
vt 0.910100 0.758505
vt 0.834303 0.910100
vt 0.682707 0.000527
vt 0.682707 0.910100
vt 0.915570 0.010725
vt 0.919986 0.003076
vt 0.911154 0.003076
vt 0.000527 0.999473
vt 0.919986 0.019427
vt 0.911154 0.019427
vt 0.915570 0.011778
s 0
usemtl マテリアル
f 2/1/1 10/2/1 4/3/1
f 3/4/2 2/5/2 1/6/2
f 6/7/3 1/8/3 4/9/3
f 7/10/4 4/9/4 5/11/4
f 3/12/5 7/13/5 9/14/5
f 8/15/6 5/11/6 10/16/6
f 9/17/7 10/16/7 11/18/7
f 12/19/8 11/18/8 2/5/8
f 16/20/9 22/21/9 17/22/9
f 14/23/10 20/24/10 15/25/10
f 13/26/11 33/27/11 18/28/11
f 44/29/12 17/22/12 22/21/12
f 16/20/13 20/24/13 21/30/13
f 13/26/14 19/31/14 14/23/14
f 20/24/15 24/32/15 25/33/15
f 18/28/16 33/34/16 23/35/16
f 44/36/17 22/21/17 27/37/17
f 20/24/18 26/38/18 21/30/18
f 18/28/19 24/32/19 19/31/19
f 21/30/20 27/37/20 22/21/20
f 23/35/21 33/39/21 28/40/21
f 44/41/22 27/37/22 32/42/22
f 25/33/23 31/43/23 26/38/23
f 24/32/24 28/40/24 29/44/24
f 26/38/25 32/42/25 27/37/25
f 24/32/26 30/45/26 25/33/26
f 44/46/27 32/42/27 38/47/27
f 30/45/28 37/48/28 31/43/28
f 28/40/29 35/49/29 29/44/29
f 31/43/30 38/47/30 32/42/30
f 29/44/31 36/50/31 30/45/31
f 28/40/32 33/51/32 34/52/32
f 44/53/33 38/54/33 43/55/33
f 37/56/34 41/57/34 42/58/34
f 35/59/35 39/60/35 40/61/35
f 37/56/36 43/55/36 38/54/36
f 36/62/37 40/61/37 41/57/37
f 34/63/38 33/64/38 39/60/38
f 44/65/39 43/55/39 17/22/39
f 41/57/40 16/20/40 42/58/40
f 39/60/41 14/23/41 40/61/41
f 42/58/42 17/22/42 43/55/42
f 40/61/43 15/25/43 41/57/43
f 39/60/44 33/66/44 13/26/44
f 4/3/1 1/67/1 2/1/1
f 2/1/1 11/68/1 10/2/1
f 10/2/1 5/69/1 4/3/1
f 3/4/2 12/19/2 2/5/2
f 6/7/3 3/70/3 1/8/3
f 7/10/4 6/7/4 4/9/4
f 9/14/5 12/71/5 3/12/5
f 3/12/5 6/72/5 7/13/5
f 7/13/5 8/73/5 9/14/5
f 8/15/6 7/10/6 5/11/6
f 9/17/7 8/15/7 10/16/7
f 12/19/8 9/17/8 11/18/8
f 16/20/9 21/30/9 22/21/9
f 14/23/10 19/31/10 20/24/10
f 16/20/13 15/25/13 20/24/13
f 13/26/14 18/28/14 19/31/14
f 20/24/15 19/31/15 24/32/15
f 20/24/18 25/33/18 26/38/18
f 18/28/19 23/35/19 24/32/19
f 21/30/20 26/38/20 27/37/20
f 25/33/23 30/45/23 31/43/23
f 24/32/24 23/35/24 28/40/24
f 26/38/25 31/43/25 32/42/25
f 24/32/26 29/44/26 30/45/26
f 30/45/28 36/50/28 37/48/28
f 28/40/29 34/52/29 35/49/29
f 31/43/30 37/48/30 38/47/30
f 29/44/31 35/49/31 36/50/31
f 37/56/34 36/62/34 41/57/34
f 35/59/35 34/63/35 39/60/35
f 37/56/36 42/58/36 43/55/36
f 36/62/37 35/59/37 40/61/37
f 41/57/40 15/25/40 16/20/40
f 39/60/41 13/26/41 14/23/41
f 42/58/42 16/20/42 17/22/42
f 40/61/43 14/23/43 15/25/43
