# Blender 4.2.0
# www.blender.org
mtllib CoreFraction3.mtl
o 円柱.001
v 0.148190 0.430917 0.153909
v -0.197660 -0.362889 0.551830
v -0.233518 0.142637 0.663758
v -0.197916 -0.361651 0.551830
v -0.577507 0.430917 0.199076
v -0.408427 0.430917 0.475271
v 0.294510 -0.362889 -0.388499
v 0.661282 -0.159114 0.140480
v 0.648523 -0.144442 0.442777
v 0.157821 -0.361651 0.551830
v 0.296661 -0.361651 -0.384772
v 0.155116 -0.362889 0.551830
v -0.248094 0.430917 -0.371484
v 0.148190 0.430917 -0.438690
v 0.386276 0.157129 -0.501808
v 0.220450 -0.361651 -0.516773
v 0.691809 -0.194218 -0.582805
v 0.318699 -0.361651 -0.533435
v 0.315941 -0.362889 -0.533070
v 0.220396 -0.362889 -0.516867
v -0.649501 -0.361651 -0.185839
v -0.647444 -0.362888 -0.182896
v -0.076994 -0.539218 -0.481077
v -0.149018 -0.361651 0.631705
v -0.022395 -0.205328 0.891270
v -0.150021 -0.362889 0.629650
v 0.137633 -0.361651 0.688010
v 0.265916 -0.294369 0.814221
v 0.135273 -0.362889 0.685688
v -0.273791 -0.577437 0.283229
v -0.313001 -0.564095 0.295559
v -0.761728 0.430917 -0.101851
v -0.662375 0.430917 -0.301226
v -0.561954 -0.362888 -0.384187
v -0.562111 -0.361651 -0.384058
v -0.561565 -0.365965 -0.384509
v -0.596184 -0.362888 -0.315497
v -0.610110 -0.361651 -0.287738
v -0.656327 -0.357544 -0.195605
vn -0.0000 1.0000 -0.0000
vn -0.0000 -1.0000 -0.0000
vn 0.3773 0.6562 0.6535
vn -0.1082 -0.8274 0.5511
vn 0.7546 0.6562 -0.0000
vn -0.1083 -0.8274 0.5511
vn -0.8930 -0.0665 -0.4450
vn -0.3578 -0.9235 -0.1383
vn 0.4154 -0.9075 0.0616
vn -0.8400 -0.1734 0.5142
vn -0.1666 0.0816 -0.9826
vn 0.9995 -0.0000 0.0312
vn -0.0000 -0.7071 0.7071
vt 0.870232 0.892201
vt 0.817974 0.848927
vt 0.847703 0.850752
vt 0.034438 0.828917
vt 0.027639 0.804248
vt 0.018935 0.811154
vt 0.675740 0.562792
vt 0.675740 0.622470
vt 0.552965 0.603717
vt 0.099797 0.756751
vt 0.111772 0.830907
vt 0.638216 0.485952
vt 0.160519 0.168793
vt 0.778799 0.605064
vt 0.424452 0.534039
vt 0.559137 0.489145
vt 0.409502 0.494491
vt 0.096997 0.749212
vt 0.087496 0.756751
vt 0.860301 0.572848
vt 0.871270 0.568512
vt 0.866282 0.562488
vt 0.126201 0.742881
vt 0.404770 0.609637
vt 0.819743 0.510545
vt 0.819258 0.513542
vt 0.825440 0.513163
vt 0.816487 0.973212
vt 0.782143 0.892201
vt 0.117304 0.824042
vt 0.116405 0.830914
vt 0.788955 0.601050
vt 0.164578 0.170009
vt 0.589152 0.412099
vt 0.430701 0.562792
vt 0.771204 0.582863
vt 0.774720 0.576394
vt 0.185788 0.180531
vt 0.366849 0.595990
vt 0.523039 0.392297
vt 0.171561 0.758500
vt 0.041993 0.829111
vt 0.122099 0.816801
vt 0.675740 0.507768
vt 0.890910 0.930244
vt 0.747868 0.933595
vt 0.807922 0.515310
s 0
usemtl マテリアル
f 5/1/1 33/2/1 32/3/1
f 24/4/2 10/5/2 27/6/2
f 1/7/3 6/8/3 3/9/3
f 16/10/2 10/5/2 21/11/2
f 26/12/4 30/13/4 29/14/4
f 1/7/5 8/15/5 15/16/5
f 15/16/5 8/15/5 17/17/5
f 16/10/2 18/18/2 11/19/2
f 7/20/1 19/21/1 20/22/1
f 27/23/6 25/24/6 24/4/6
f 36/25/7 37/26/7 34/27/7
f 1/28/1 13/29/1 5/1/1
f 38/30/8 21/11/8 39/31/8
f 38/30/7 32/3/7 33/2/7
f 12/32/9 30/33/9 23/34/9
f 10/5/9 17/17/9 9/35/9
f 26/36/1 12/32/1 2/37/1
f 2/37/10 31/38/10 26/12/10
f 3/9/3 28/39/3 9/35/3
f 37/26/8 23/40/8 31/38/8
f 36/25/11 20/22/11 19/21/11
f 20/22/1 37/26/1 2/37/1
f 15/16/11 16/10/11 33/2/11
f 39/31/10 25/41/10 6/8/10
f 5/1/1 13/29/1 33/2/1
f 24/4/2 4/42/2 10/5/2
f 38/30/2 35/43/2 16/10/2
f 16/10/2 11/19/2 10/5/2
f 10/5/2 4/42/2 21/11/2
f 21/11/2 38/30/2 16/10/2
f 26/12/6 31/38/6 30/13/6
f 15/16/5 14/44/5 1/7/5
f 1/7/5 9/35/5 8/15/5
f 27/23/4 28/39/4 25/24/4
f 5/1/1 6/45/1 1/28/1
f 1/28/1 14/46/1 13/29/1
f 33/2/7 35/43/7 38/30/7
f 38/30/7 39/31/7 32/3/7
f 23/34/9 19/21/9 7/20/9
f 12/32/9 29/14/9 30/33/9
f 23/34/9 7/20/9 12/32/9
f 11/19/9 18/18/9 17/17/9
f 17/17/12 8/15/12 9/35/12
f 9/35/9 28/39/9 27/23/9
f 10/5/9 11/19/9 17/17/9
f 9/35/9 27/23/9 10/5/9
f 26/36/1 29/14/1 12/32/1
f 2/37/10 22/47/10 31/38/10
f 9/35/3 1/7/3 3/9/3
f 3/9/3 25/24/3 28/39/3
f 31/38/8 22/47/8 37/26/8
f 37/26/8 36/25/8 23/40/8
f 23/40/8 30/13/8 31/38/8
f 19/21/11 23/40/11 36/25/11
f 36/25/11 34/27/11 20/22/11
f 12/32/1 7/20/1 20/22/1
f 20/22/1 34/27/1 37/26/1
f 37/26/1 22/47/1 2/37/1
f 2/37/1 12/32/1 20/22/1
f 13/29/11 14/46/11 15/16/11
f 15/16/11 17/17/11 18/18/11
f 16/10/11 35/43/11 33/2/11
f 15/16/11 18/18/11 16/10/11
f 33/2/11 13/29/11 15/16/11
f 5/1/10 32/3/10 39/31/10
f 39/31/10 21/11/10 4/42/10
f 4/42/10 24/4/10 25/41/10
f 25/41/13 3/9/13 6/8/13
f 6/8/10 5/1/10 39/31/10
f 39/31/10 4/42/10 25/41/10
