# Blender 4.2.0
# www.blender.org
mtllib CoreFraction2.mtl
o 円柱.001
v 0.440010 -0.000999 0.512918
v 0.440010 0.000238 0.512918
v -0.353123 -0.000999 0.970834
v -0.406236 -0.000999 -0.028959
v -0.092519 0.612620 0.205462
v -0.352534 0.000238 0.970494
v -0.405680 0.000238 -0.029922
v -0.399166 -0.087216 0.900922
v 0.440010 -0.000999 -0.485967
v -0.279759 -0.000999 -0.248024
v 0.440010 0.000238 -0.487445
v -0.278703 0.000238 -0.249852
v -0.414970 0.000238 -0.204804
v -0.415490 -0.000999 -0.203154
v -0.026467 -0.482270 0.243597
v -0.560954 -0.347281 0.258911
v -0.082095 -0.488200 0.269076
v -0.089247 0.608858 -0.723183
v -0.123008 0.647681 -0.692494
v -0.210404 0.487214 -0.854605
v 0.073002 0.422280 -0.870666
vn 0.7181 -0.6960 -0.0000
vn -0.0000 1.0000 -0.0000
vn -0.2075 -0.7503 -0.6276
vn 0.3773 0.6562 0.6535
vn 0.1133 0.6749 -0.7292
vn -0.2646 -0.8688 0.4186
vn 0.7546 0.6562 -0.0000
vn -0.0000 -1.0000 -0.0000
vn 0.3590 -0.6960 0.6219
vn -0.8966 0.4402 0.0476
vn -0.3154 -0.0000 -0.9490
vn -0.3155 -0.0000 -0.9489
vn -0.3326 0.9429 0.0176
vn -0.3325 0.9429 0.0176
vt 0.091105 0.450277
vt 0.000216 0.506258
vt 0.000216 0.450277
vt 0.800961 0.413379
vt 0.812762 0.405703
vt 0.792348 0.405703
vt 0.092225 0.447049
vt 0.746674 0.364999
vt 0.599001 0.225247
vt 0.338194 0.276536
vt 0.338194 0.225247
vt 0.507898 0.321489
vt 0.597399 0.138845
vt 0.517937 0.135829
vt 0.159037 0.441016
vt 0.016498 0.401378
vt 0.613933 0.143504
vt 0.198534 0.899320
vt 0.208781 0.881571
vt 0.196184 0.887979
vt 0.280846 0.918773
vt 0.000216 0.398950
vt 0.338194 0.169182
vt 0.816487 0.324692
vt 0.210929 0.959139
vt 0.280846 0.844917
vt 0.880496 0.361647
s 0
usemtl マテリアル.002
f 15/1/1 9/2/1 1/3/1
f 14/4/2 4/5/2 10/6/2
f 17/7/3 14/4/3 9/8/3
f 5/9/4 6/10/4 2/11/4
f 20/12/5 18/13/5 21/14/5
f 16/15/6 17/7/6 8/16/6
f 5/9/7 18/13/7 19/17/7
f 12/18/8 7/19/8 13/20/8
f 2/21/8 7/19/8 12/18/8
f 17/7/9 1/3/9 3/22/9
f 3/22/10 14/4/10 16/15/10
f 18/13/7 11/23/7 21/14/7
f 11/23/3 12/18/3 20/12/3
f 1/24/2 10/6/2 4/5/2
f 7/19/10 5/9/10 20/12/10
f 9/8/3 15/1/3 17/7/3
f 17/7/3 16/15/3 14/4/3
f 14/4/11 10/6/11 9/8/12
f 20/12/5 19/17/5 18/13/5
f 5/9/7 2/11/7 18/13/7
f 12/18/8 11/25/8 2/21/8
f 2/21/8 6/26/8 7/19/8
f 3/22/9 8/16/9 17/7/9
f 17/7/9 15/1/9 1/3/9
f 16/15/10 8/16/10 3/22/10
f 3/22/13 4/5/14 14/4/14
f 18/13/7 2/11/7 11/23/7
f 20/12/3 21/14/3 11/23/3
f 12/18/3 13/20/3 20/12/3
f 4/5/2 3/27/2 1/24/2
f 1/24/2 9/8/2 10/6/2
f 20/12/10 13/20/10 7/19/10
f 7/19/10 6/26/10 5/9/10
f 5/9/10 19/17/10 20/12/10
