# Blender 4.2.0
# www.blender.org
mtllib CoreFraction1.mtl
o 円柱.001
v -0.085469 -0.560602 -0.007198
v -0.091702 -0.560602 -0.003599
v -0.091702 -0.560602 0.003599
v -0.085469 -0.560602 0.007198
v -0.079236 -0.560602 0.003599
v -0.079236 -0.560602 -0.003599
v -0.085469 0.318450 -0.991039
v -0.633905 0.003197 -0.321567
v -0.636645 0.001622 -0.318222
v -0.520167 -0.118550 0.245556
v -0.519167 -0.119581 0.250396
v -0.090051 -0.087075 0.534527
v -0.080894 -0.085301 0.536516
v 0.581698 0.121292 0.385189
v 0.905847 0.455721 -0.569232
v 0.907159 0.457074 -0.573094
v -0.082303 0.318892 -0.989706
v -0.085469 -0.086728 0.537561
vn 0.3590 -0.6960 0.6219
vn -0.0000 -1.0000 -0.0000
vn 0.3591 -0.6960 0.6218
vn -0.2360 0.9393 0.2490
vn 0.3590 -0.6960 -0.6219
vn 0.7181 -0.6960 -0.0000
vn -0.3591 -0.6960 0.6218
vn -0.3590 -0.6960 0.6219
vn -0.7181 -0.6960 -0.0000
vn -0.3591 -0.6960 -0.6218
vn -0.3590 -0.6960 -0.6219
vn 0.3591 -0.6960 -0.6218
vn -0.2360 0.9393 0.2489
vn -0.2359 0.9394 0.2488
vn -0.2361 0.9393 0.2490
vn 0.7181 -0.6959 0.0002
vn -0.7180 -0.6960 0.0001
vt 0.248000 0.420357
vt 0.337762 0.450277
vt 0.208985 0.450277
vt 0.676172 0.081227
vt 0.816487 0.000216
vt 0.956802 0.243249
vt 0.337762 0.337762
vt 0.248270 0.337762
vt 0.956802 0.081227
vt 0.816487 0.324260
vt 0.676172 0.243249
vt 0.145827 0.514255
vt 0.231287 0.035707
vt 0.248335 0.255056
vt 0.337762 0.562792
vt 0.171668 0.618157
vt 0.145572 0.562792
vt 0.337762 0.225247
vt 0.254474 0.225247
vt 0.254279 0.140559
vt 0.337762 0.112731
vt 0.231585 0.112731
vt 0.337762 0.000216
vt 0.171751 0.000216
vt 0.337762 0.675308
vt 0.171751 0.675308
s 0
usemtl マテリアル.001
f 13/1/1 5/2/1 14/3/1
f 4/4/2 3/5/2 1/6/2
f 4/7/3 13/1/3 18/8/3
f 3/5/2 2/9/2 1/6/2
f 1/6/2 6/10/2 5/11/2
f 5/11/2 4/4/2 1/6/2
f 15/12/4 8/13/4 12/14/4
f 6/15/5 17/16/5 16/17/5
f 6/15/6 15/12/6 5/2/6
f 5/2/6 15/12/6 14/3/6
f 4/7/7 12/14/7 3/18/7
f 3/18/8 12/14/8 11/19/8
f 3/18/9 10/20/9 2/21/9
f 2/21/9 10/20/9 9/22/9
f 2/21/10 8/13/10 1/23/10
f 1/23/11 8/13/11 7/24/11
f 1/25/12 17/16/12 6/15/12
f 4/7/3 5/2/3 13/1/3
f 15/12/13 16/17/13 17/16/13
f 17/16/4 7/26/4 8/13/4
f 8/13/4 9/22/4 10/20/4
f 10/20/14 11/19/14 12/14/14
f 12/14/15 18/8/15 13/1/15
f 13/1/4 14/3/4 15/12/4
f 15/12/4 17/16/4 8/13/4
f 8/13/4 10/20/4 12/14/4
f 12/14/13 13/1/13 15/12/13
f 6/15/16 16/17/16 15/12/16
f 4/7/7 18/8/7 12/14/7
f 3/18/17 11/19/17 10/20/17
f 2/21/10 9/22/10 8/13/10
f 1/25/5 7/26/5 17/16/5
